<svg width="35" height="34" viewBox="0 0 35 34" fill="none" xmlns="http://www.w3.org/2000/svg">
<path d="M17.0962 2.50657H27.6962C28.4912 2.50657 29.9963 2.31609 29.9963 3.38022L30.0232 6.40699C30.5594 6.40699 31.46 6.47532 31.46 7.18546C31.46 8.77546 31.4662 9.45449 31.4662 11.0342C31.8161 11.0342 32.0915 11.4213 32.0915 11.7546V14.5309C32.0915 14.8643 31.8575 15.4212 31.4662 15.4212V18.8248C31.4662 19.8537 29.9073 20.0442 29.1557 20.0442H22.0071C21.2224 20.0442 20.6821 20.7978 20.8995 21.539L21.9533 26.7479C22.0278 27.1247 21.8953 27.9818 21.6676 28.8203C21.5248 29.3399 21.3343 30.166 20.8623 30.4952C20.3385 30.8658 19.558 31.0894 18.9328 30.9506L18.0322 26.5989C17.9908 26.3815 17.8893 26.191 17.7506 26.0419L12.3017 19.2473V7.90004C12.3017 6.8235 12.4756 5.69513 12.9849 4.73657C13.8379 3.11965 15.3637 2.5048 17.0986 2.5048L17.0962 2.50657ZM9.98892 18.502L4.16953 18.5392C2.98736 18.5496 2.91284 18.2742 2.91284 17.1397V3.94748C2.91284 2.89368 2.95011 2.50652 4.07842 2.50652H9.98686V18.5019L9.98892 18.502ZM12.2994 1.89812V1.3474C12.2994 0.711823 11.7798 0.192162 11.1442 0.192162H4.07821C1.6083 0.192162 0.595947 1.6124 0.595947 3.94975V17.142C0.595947 19.5435 1.66215 20.8582 4.17965 20.8416L10.5937 20.8044L15.8192 27.3239L16.6825 31.6426C16.7405 31.949 16.8833 32.2305 17.0862 32.4645C18.3574 33.9158 21.1399 33.2698 22.471 32.1622L22.5497 32.098C23.09 31.6219 23.5786 30.5453 23.885 29.4315C24.1976 28.2929 24.3509 27.0155 24.208 26.2991L23.413 22.3614H29.1518C31.3298 22.3614 33.7728 21.3428 33.7728 18.8253V18.2373C33.7728 17.6907 33.6983 17.2042 33.5285 16.786C34.0854 16.1607 34.398 15.3761 34.398 14.5335V11.7572C34.398 10.9311 34.0792 10.1982 33.5016 9.61025C33.6983 9.10716 33.7666 8.50886 33.7666 7.86703V7.18799C33.7666 6.31434 33.4167 5.47169 32.659 4.87131L32.2511 4.59596C32.3195 4.19225 32.305 3.78442 32.305 3.38274C32.305 0.531918 29.9614 0.192402 27.6944 0.192402H17.0944C15.3408 0.192402 13.6121 0.701702 12.2975 1.89837L12.2994 1.89812Z" fill="black"/>
</svg>
