<svg width="35" height="34" viewBox="0 0 35 34" fill="none" xmlns="http://www.w3.org/2000/svg">
<path d="M17.0961 31.4934H27.6961C28.4911 31.4934 29.9962 31.6839 29.9962 30.6198L30.0231 27.593C30.5593 27.593 31.4599 27.5247 31.4599 26.8145C31.4599 25.2245 31.4661 24.5455 31.4661 22.9658C31.816 22.9658 32.0913 22.5787 32.0913 22.2454V19.4691C32.0913 19.1357 31.8574 18.5788 31.4661 18.5788V15.1752C31.4661 14.1463 29.9072 13.9558 29.1556 13.9558H22.007C21.2223 13.9558 20.682 13.2022 20.8994 12.461L21.9532 7.25214C22.0277 6.87534 21.8952 6.01824 21.6675 5.17973C21.5246 4.66008 21.3342 3.83401 20.8621 3.50483C20.3384 3.13424 19.5579 2.91064 18.9326 3.04936L18.0321 7.40114C17.9906 7.61852 17.8892 7.80899 17.7505 7.95806L12.3016 14.7527V26.1C12.3016 27.1765 12.4755 28.3049 12.9848 29.2634C13.8378 30.8804 15.3636 31.4952 17.0985 31.4952L17.0961 31.4934ZM9.9888 15.498L4.1694 15.4608C2.98724 15.4504 2.91272 15.7258 2.91272 16.8603V30.0525C2.91272 31.1063 2.94999 31.4935 4.0783 31.4935H9.98674V15.4981L9.9888 15.498ZM12.2993 32.1019V32.6526C12.2993 33.2882 11.7796 33.8078 11.144 33.8078H4.07808C1.60818 33.8078 0.595825 32.3876 0.595825 30.0502V16.858C0.595825 14.4565 1.66203 13.1418 4.17953 13.1584L10.5936 13.1956L15.8191 6.67609L16.6824 2.35744C16.7404 2.05103 16.8832 1.76945 17.0861 1.53551C18.3573 0.0842127 21.1397 0.730177 22.4709 1.83778L22.5496 1.90195C23.0899 2.37813 23.5785 3.45469 23.8849 4.56849C24.1975 5.70714 24.3507 6.98455 24.2079 7.7009L23.4129 11.6386H29.1517C31.3297 11.6386 33.7727 12.6572 33.7727 15.1747V15.7627C33.7727 16.3093 33.6982 16.7958 33.5284 17.214C34.0853 17.8393 34.3979 18.6239 34.3979 19.4665V22.2428C34.3979 23.0689 34.0791 23.8018 33.5015 24.3897C33.6981 24.8928 33.7665 25.4911 33.7665 26.133V26.812C33.7665 27.6857 33.4166 28.5283 32.6589 29.1287L32.251 29.404C32.3193 29.8078 32.3048 30.2156 32.3048 30.6173C32.3048 33.4681 29.9612 33.8076 27.6943 33.8076H17.0943C15.3407 33.8076 13.612 33.2983 12.2973 32.1016L12.2993 32.1019Z" fill="black"/>
</svg>
