<svg width="472" height="224" viewBox="0 0 472 224" fill="none" xmlns="http://www.w3.org/2000/svg">
<path d="M202.3 48.2687C203.001 47.8267 203.211 46.9004 202.769 46.1997L195.566 34.7817C195.124 34.0811 194.198 33.8714 193.497 34.3134C192.796 34.7554 192.587 35.6817 193.029 36.3824L199.431 46.5317L189.282 52.9341C188.581 53.3761 188.371 54.3025 188.813 55.0031C189.255 55.7038 190.182 55.9135 190.882 55.4715L202.3 48.2687ZM0.168827 2.96298L201.169 48.463L201.831 45.537L0.831173 0.0370153L0.168827 2.96298Z" fill="black"/>
<path d="M335.257 137.697C334.538 138.107 334.287 139.023 334.697 139.743L341.38 151.472C341.79 152.192 342.706 152.443 343.426 152.033C344.146 151.623 344.397 150.707 343.986 149.987L338.046 139.561L348.472 133.62C349.192 133.21 349.443 132.294 349.033 131.574C348.623 130.854 347.707 130.603 346.987 131.014L335.257 137.697ZM471.396 174.553L336.396 137.553L335.604 140.447L470.604 177.447L471.396 174.553Z" fill="black"/>
<path d="M290.5 94.9994L300.377 90.9069L307.769 105.691L300.377 159.898L283.129 194.393L300.377 220.264H242.474L235.506 194.393L213 151.758L219.138 108.281L242.474 56.6206C253.562 52.5288 253.562 67.8734 253.562 62.247L246.17 82.2831L263.417 67.8734C270.447 67.1394 268.345 77.7292 268.345 77.7292L253.562 94.9994" stroke="#F3C555" stroke-width="7.39185" stroke-linecap="round" stroke-linejoin="round"/>
<path d="M245.223 83.1874L234.482 113.398V141.497L239.086 150.226" stroke="#F3C555" stroke-width="7.16086" stroke-linecap="round" stroke-linejoin="round"/>
<path d="M291.044 94.6489C292.189 94.6489 293.088 95.0305 293.742 95.7936C294.451 96.5021 294.805 97.4288 294.805 98.5734V129.969C294.805 134.275 293.851 138.145 291.944 141.579C290.036 145.013 287.392 147.711 284.013 149.674C280.688 151.581 276.927 152.535 272.73 152.535C268.478 152.535 264.663 151.581 261.284 149.674C257.904 147.711 255.261 145.013 253.353 141.579C251.445 138.145 250.491 134.275 250.491 129.969V98.5734C250.491 97.4288 250.873 96.5021 251.636 95.7936C252.399 95.0305 253.38 94.6489 254.579 94.6489C255.615 94.6489 256.514 95.0305 257.277 95.7936C258.095 96.5566 258.504 97.4833 258.504 98.5734V129.969C258.504 132.804 259.158 135.366 260.466 137.655C261.774 139.89 263.518 141.634 265.699 142.887C267.879 144.141 270.223 144.768 272.73 144.768C275.346 144.768 277.772 144.141 280.007 142.887C282.241 141.634 284.013 139.89 285.321 137.655C286.684 135.366 287.365 132.804 287.365 129.969V98.5734C287.365 97.4288 287.692 96.5021 288.346 95.7936C289 95.0305 289.9 94.6489 291.044 94.6489Z" fill="#E9A90E"/>
<path d="M336.504 44.4195H336.512L336.512 43.9072C336.504 39.3127 334.451 34.96 330.911 32.0302L330.911 32.03C327.369 29.1031 322.71 27.9038 318.195 28.758L318.194 28.7581C313.969 29.5598 310.282 32.0823 308.003 35.6985C305.724 32.0824 302.037 29.56 297.811 28.7581L297.811 28.758C293.297 27.9038 288.637 29.1031 285.095 32.03L285.095 32.0302C281.555 34.9595 279.501 39.3124 279.494 43.9072V43.908C279.494 52.9795 286.138 61.2909 292.78 67.353C299.449 73.4397 306.252 77.3809 306.814 77.705L306.847 77.7245L306.884 77.7386L307.22 77.8693L307.22 77.8694L307.229 77.8729C307.475 77.9627 307.733 78.01 307.991 78.0159L307.991 78.016L307.999 78.0161C308.415 78.019 308.825 77.9119 309.187 77.7072L309.191 77.7051C309.753 77.381 316.556 73.4398 323.225 67.3531C329.742 61.4051 336.26 53.2916 336.504 44.4195ZM284.251 43.908C284.251 40.0896 286.288 36.5627 289.594 34.6525C292.901 32.7443 296.975 32.7443 300.282 34.6525C303.588 36.563 305.625 40.0899 305.625 43.908C305.625 45.2217 306.689 46.2859 308.003 46.2859C309.317 46.2859 310.381 45.2217 310.381 43.908C310.381 40.0896 312.418 36.5625 315.725 34.6524C319.031 32.7444 323.105 32.7444 326.412 34.6524C329.719 36.5629 331.756 40.0898 331.756 43.908C331.756 50.5891 326.962 57.1503 321.474 62.4496C316.216 67.5272 310.432 71.3411 308.003 72.8528C305.575 71.3415 299.791 67.5322 294.532 62.4569C289.045 57.1601 284.251 50.5988 284.251 43.908Z" fill="#EA5555" stroke="#EA5555" stroke-width="1.02298"/>
</svg>
