<svg width="74" height="112" viewBox="0 0 74 112" fill="none" xmlns="http://www.w3.org/2000/svg">
<path d="M47.5 38.4995L52.7268 36.2312L56.9335 44.6447L52.7268 75.4943L42.911 95.1258L52.7268 109.849H19.7738L15.8081 95.1258L3 70.8619L6.49311 46.1189L19.7738 16.7186C26.084 14.3899 26.084 23.1226 26.084 19.9206L21.8772 31.3233L31.693 23.1227C35.6937 22.7049 34.4975 28.7317 34.4975 28.7317L26.084 38.4995" stroke="#F3C555" stroke-width="4.20676" stroke-linecap="round" stroke-linejoin="round"/>
<path d="M21.3385 31.8379L15.2256 49.0311V65.0225L17.8454 69.9898" stroke="#F3C555" stroke-width="4.0753" stroke-linecap="round" stroke-linejoin="round"/>
<path d="M47.4157 37.6947C48.0671 37.6947 48.579 37.9118 48.9512 38.3461C49.3545 38.7494 49.5561 39.2767 49.5561 39.9281V57.7958C49.5561 60.2464 49.0133 62.4489 47.9276 64.4031C46.8418 66.3574 45.3374 67.8929 43.4141 69.0096C41.5219 70.0954 39.3815 70.6382 36.9929 70.6382C34.5733 70.6382 32.4019 70.0954 30.4786 69.0096C28.5554 67.8929 27.0509 66.3574 25.9652 64.4031C24.8795 62.4489 24.3366 60.2464 24.3366 57.7958V39.9281C24.3366 39.2767 24.5538 38.7494 24.9881 38.3461C25.4223 37.9118 25.9807 37.6947 26.6632 37.6947C27.2525 37.6947 27.7644 37.9118 28.1987 38.3461C28.664 38.7804 28.8966 39.3077 28.8966 39.9281V57.7958C28.8966 59.4089 29.2689 60.8668 30.0133 62.1697C30.7578 63.4415 31.7505 64.4342 32.9913 65.1476C34.2321 65.8611 35.566 66.2178 36.9929 66.2178C38.4819 66.2178 39.8623 65.8611 41.1341 65.1476C42.4059 64.4342 43.4141 63.4415 44.1586 62.1697C44.9341 60.8668 45.3219 59.4089 45.3219 57.7958V39.9281C45.3219 39.2767 45.508 38.7494 45.8802 38.3461C46.2525 37.9118 46.7643 37.6947 47.4157 37.6947Z" fill="#E9A90E"/>
<path d="M73.2865 9.77533H73.2915L73.2911 9.48378C73.287 6.86905 72.1183 4.39187 70.1038 2.72452L70.1036 2.72437C68.0878 1.05867 65.4362 0.376155 62.8667 0.862277L62.8666 0.862306C60.4617 1.31859 58.3636 2.75418 57.0665 4.81217C55.7695 2.75421 53.6714 1.31869 51.2665 0.862307L51.2664 0.862278C48.697 0.376155 46.0451 1.05866 44.0294 2.72438L44.0292 2.72451C42.0147 4.3916 40.8461 6.86889 40.842 9.48378V9.48424C40.842 14.6469 44.623 19.377 48.4029 22.827C52.1982 26.2909 56.0699 28.5339 56.3897 28.7184L56.4089 28.7295L56.4296 28.7375L56.6208 28.8119L56.6208 28.8119L56.6263 28.814C56.766 28.8651 56.9131 28.892 57.0595 28.8953L57.0595 28.8954L57.0641 28.8954C57.3013 28.8971 57.5346 28.8361 57.7406 28.7196L57.7427 28.7184C58.0627 28.534 61.9344 26.291 65.7296 22.8271C69.4384 19.442 73.1481 14.8245 73.2865 9.77533ZM43.5489 9.48424C43.5489 7.3112 44.7082 5.30397 46.5899 4.21688C48.4717 3.13093 50.7905 3.13093 52.6723 4.21689C54.554 5.30419 55.7133 7.31132 55.7133 9.48424C55.7133 10.2319 56.319 10.8376 57.0667 10.8376C57.8143 10.8376 58.42 10.2319 58.42 9.48424C58.42 7.31116 59.5794 5.3039 61.4612 4.21682C63.3428 3.13095 65.6615 3.13095 67.5433 4.21681C69.4251 5.3041 70.5845 7.31127 70.5845 9.48424C70.5845 13.2865 67.8561 17.0206 64.7329 20.0364C61.7404 22.9261 58.4487 25.0966 57.0666 25.9569C55.6845 25.0969 52.3929 22.9289 49.4004 20.0406C46.2774 17.0261 43.5489 13.292 43.5489 9.48424Z" fill="#EA5555" stroke="#EA5555" stroke-width="0.582186"/>
</svg>
