<svg width="29" height="40" viewBox="0 0 29 40" fill="none" xmlns="http://www.w3.org/2000/svg">
<mask id="path-2-inside-1" fill="white">
<path fill-rule="evenodd" clip-rule="evenodd" d="M22.4666 26.1086C26.2009 23.5235 28.647 19.2091 28.647 14.3235C28.647 6.41284 22.2341 0 14.3235 0C6.41284 0 0 6.41284 0 14.3235C0 19.351 2.59022 23.7736 6.50896 26.3294L7.78979 29.2852C8.47505 30.8666 10.0339 31.89 11.7574 31.89H17.4229C19.2841 31.89 20.9365 30.699 21.525 28.9333L22.4666 26.1086Z"/>
</mask>
<path fill-rule="evenodd" clip-rule="evenodd" d="M22.4666 26.1086C26.2009 23.5235 28.647 19.2091 28.647 14.3235C28.647 6.41284 22.2341 0 14.3235 0C6.41284 0 0 6.41284 0 14.3235C0 19.351 2.59022 23.7736 6.50896 26.3294L7.78979 29.2852C8.47505 30.8666 10.0339 31.89 11.7574 31.89H17.4229C19.2841 31.89 20.9365 30.699 21.525 28.9333L22.4666 26.1086Z" fill="#FCFFF5"/>
<path d="M22.4666 26.1086L20.9283 23.8866L20.1876 24.3993L19.9027 25.254L22.4666 26.1086ZM6.50896 26.3294L8.9887 25.2549L8.66572 24.5096L7.98534 24.0658L6.50896 26.3294ZM7.78979 29.2852L5.31006 30.3598L5.31006 30.3598L7.78979 29.2852ZM21.525 28.9333L24.0889 29.7879H24.0889L21.525 28.9333ZM25.9444 14.3235C25.9444 18.285 23.9647 21.7846 20.9283 23.8866L24.0049 28.3307C28.4371 25.2623 31.3495 20.1333 31.3495 14.3235H25.9444ZM14.3235 2.70254C20.7416 2.70254 25.9444 7.90542 25.9444 14.3235H31.3495C31.3495 4.92027 23.7267 -2.70254 14.3235 -2.70254V2.70254ZM2.70254 14.3235C2.70254 7.90542 7.90542 2.70254 14.3235 2.70254V-2.70254C4.92027 -2.70254 -2.70254 4.92027 -2.70254 14.3235H2.70254ZM7.98534 24.0658C4.79908 21.9877 2.70254 18.3997 2.70254 14.3235H-2.70254C-2.70254 20.3024 0.381358 25.5595 5.03258 28.5931L7.98534 24.0658ZM10.2695 28.2107L8.9887 25.2549L4.02922 27.404L5.31006 30.3598L10.2695 28.2107ZM11.7574 29.1875C11.1111 29.1875 10.5265 28.8037 10.2695 28.2107L5.31006 30.3598C6.42359 32.9295 8.95677 34.5925 11.7574 34.5925V29.1875ZM17.4229 29.1875H11.7574V34.5925H17.4229V29.1875ZM18.9612 28.0787C18.7405 28.7408 18.1208 29.1875 17.4229 29.1875V34.5925C20.4473 34.5925 23.1325 32.6572 24.0889 29.7879L18.9612 28.0787ZM19.9027 25.254L18.9612 28.0787L24.0889 29.7879L25.0305 26.9632L19.9027 25.254Z" fill="#121F41" mask="url(#path-2-inside-1)"/>
<path d="M9.99939 10.5764L18.2876 10.5764C18.7095 10.5764 19.0515 10.9185 19.0515 11.3404V13.5444C19.0515 13.9663 18.7095 14.3083 18.2876 14.3083H10.7633C10.3414 14.3083 9.99939 14.6503 9.99939 15.0722V17.2116C9.99939 17.6335 10.3414 17.9756 10.7633 17.9756H17.8642C18.42 17.9756 18.7898 18.5502 18.5595 19.0561L13.3934 30.4008" stroke="#121F41" stroke-width="2.70254" stroke-linecap="round"/>
<path d="M9.56671 34.3604H19.1866M10.922 37.7884H18.3628" stroke="#121F41" stroke-width="2.49797" stroke-linecap="round" stroke-linejoin="round"/>
</svg>
