<svg width="306" height="297" viewBox="0 0 306 297" fill="none" xmlns="http://www.w3.org/2000/svg">
<path d="M176.956 68.598H172.132L170.926 72H169.126L173.644 59.4H175.444L179.962 72H178.162L176.956 68.598ZM176.416 67.05L174.544 61.794L172.672 67.05H176.416ZM188.808 58.5V72H187.368L187.188 70.92C186.888 71.328 186.498 71.64 186.018 71.856C185.538 72.072 185.028 72.18 184.488 72.18C183.744 72.18 183.066 71.976 182.454 71.568C181.842 71.16 181.356 70.608 180.996 69.912C180.648 69.216 180.474 68.448 180.474 67.608C180.474 66.792 180.636 66.03 180.96 65.322C181.296 64.614 181.77 64.05 182.382 63.63C182.994 63.21 183.696 63 184.488 63C185.016 63 185.514 63.096 185.982 63.288C186.45 63.48 186.852 63.774 187.188 64.17V58.5H188.808ZM184.776 70.74C185.208 70.74 185.622 70.632 186.018 70.416C186.414 70.188 186.738 69.84 186.99 69.372C187.242 68.904 187.368 68.316 187.368 67.608C187.368 66.948 187.242 66.378 186.99 65.898C186.738 65.418 186.408 65.058 186 64.818C185.604 64.566 185.196 64.44 184.776 64.44C183.96 64.44 183.312 64.74 182.832 65.34C182.364 65.928 182.13 66.684 182.13 67.608C182.13 68.496 182.37 69.24 182.85 69.84C183.33 70.44 183.972 70.74 184.776 70.74ZM194.833 72.18C193.933 72.18 193.153 71.982 192.493 71.586C191.833 71.178 191.329 70.626 190.981 69.93C190.633 69.234 190.459 68.454 190.459 67.59C190.459 66.726 190.633 65.946 190.981 65.25C191.329 64.554 191.833 64.008 192.493 63.612C193.153 63.204 193.933 63 194.833 63C195.721 63 196.495 63.204 197.155 63.612C197.827 64.008 198.337 64.554 198.685 65.25C199.033 65.946 199.207 66.726 199.207 67.59C199.207 68.454 199.033 69.234 198.685 69.93C198.337 70.626 197.827 71.178 197.155 71.586C196.495 71.982 195.721 72.18 194.833 72.18ZM194.833 70.74C195.697 70.74 196.363 70.464 196.831 69.912C197.311 69.36 197.551 68.586 197.551 67.59C197.551 66.594 197.311 65.82 196.831 65.268C196.363 64.716 195.697 64.44 194.833 64.44C193.969 64.44 193.297 64.716 192.817 65.268C192.349 65.82 192.115 66.594 192.115 67.59C192.115 68.586 192.349 69.36 192.817 69.912C193.297 70.464 193.969 70.74 194.833 70.74ZM205.215 63C206.007 63 206.703 63.21 207.303 63.63C207.915 64.05 208.383 64.614 208.707 65.322C209.031 66.018 209.193 66.774 209.193 67.59C209.193 68.43 209.013 69.204 208.653 69.912C208.305 70.608 207.825 71.16 207.213 71.568C206.613 71.976 205.947 72.18 205.215 72.18C204.675 72.18 204.153 72.072 203.649 71.856C203.145 71.628 202.755 71.316 202.479 70.92L202.299 72H200.859V58.5H202.479V64.206C202.803 63.834 203.205 63.54 203.685 63.324C204.177 63.108 204.687 63 205.215 63ZM205.017 70.74C205.773 70.74 206.379 70.44 206.835 69.84C207.303 69.228 207.537 68.478 207.537 67.59C207.537 66.678 207.303 65.928 206.835 65.34C206.379 64.74 205.773 64.44 205.017 64.44C204.273 64.44 203.649 64.716 203.145 65.268C202.641 65.808 202.389 66.582 202.389 67.59C202.389 68.634 202.635 69.42 203.127 69.948C203.631 70.476 204.261 70.74 205.017 70.74ZM215.092 72.18C214.084 72.18 213.22 71.976 212.5 71.568C211.792 71.148 211.252 70.584 210.88 69.876C210.508 69.168 210.322 68.382 210.322 67.518C210.322 66.69 210.49 65.934 210.826 65.25C211.174 64.554 211.672 64.008 212.32 63.612C212.98 63.204 213.754 63 214.642 63C215.77 63 216.682 63.33 217.378 63.99C218.086 64.65 218.44 65.562 218.44 66.726C218.44 67.026 218.416 67.314 218.368 67.59H211.978C212.086 68.73 212.434 69.54 213.022 70.02C213.61 70.5 214.366 70.74 215.29 70.74C216.214 70.74 217.06 70.566 217.828 70.218L218.044 71.496C217.024 71.952 216.04 72.18 215.092 72.18ZM216.766 66.474C216.766 65.838 216.586 65.34 216.226 64.98C215.866 64.62 215.326 64.44 214.606 64.44C213.91 64.44 213.364 64.614 212.968 64.962C212.572 65.298 212.29 65.802 212.122 66.474H216.766ZM224.458 59.4H228.616C229.96 59.4 231.004 59.73 231.748 60.39C232.504 61.038 232.882 62.07 232.882 63.486C232.882 64.878 232.504 65.91 231.748 66.582C230.992 67.254 229.948 67.59 228.616 67.59H226.258V72H224.458V59.4ZM228.364 66.06C229.288 66.06 229.978 65.85 230.434 65.43C230.89 65.01 231.118 64.368 231.118 63.504C231.118 62.628 230.896 61.98 230.452 61.56C230.02 61.14 229.324 60.93 228.364 60.93H226.258V66.06H228.364ZM238.54 63C239.656 63 240.508 63.366 241.096 64.098C241.684 64.83 241.978 65.826 241.978 67.086V72H240.358V67.284C240.358 66.312 240.178 65.598 239.818 65.142C239.47 64.674 238.924 64.44 238.18 64.44C237.724 64.44 237.304 64.548 236.92 64.764C236.536 64.968 236.212 65.262 235.948 65.646V72H234.31V58.5H235.948V64.026C236.296 63.69 236.674 63.438 237.082 63.27C237.502 63.09 237.988 63 238.54 63ZM247.936 72.18C247.036 72.18 246.256 71.982 245.596 71.586C244.936 71.178 244.432 70.626 244.084 69.93C243.736 69.234 243.562 68.454 243.562 67.59C243.562 66.726 243.736 65.946 244.084 65.25C244.432 64.554 244.936 64.008 245.596 63.612C246.256 63.204 247.036 63 247.936 63C248.824 63 249.598 63.204 250.258 63.612C250.93 64.008 251.44 64.554 251.788 65.25C252.136 65.946 252.31 66.726 252.31 67.59C252.31 68.454 252.136 69.234 251.788 69.93C251.44 70.626 250.93 71.178 250.258 71.586C249.598 71.982 248.824 72.18 247.936 72.18ZM247.936 70.74C248.8 70.74 249.466 70.464 249.934 69.912C250.414 69.36 250.654 68.586 250.654 67.59C250.654 66.594 250.414 65.82 249.934 65.268C249.466 64.716 248.8 64.44 247.936 64.44C247.072 64.44 246.4 64.716 245.92 65.268C245.452 65.82 245.218 66.594 245.218 67.59C245.218 68.586 245.452 69.36 245.92 69.912C246.4 70.464 247.072 70.74 247.936 70.74ZM256.9 72.18C256.12 72.18 255.538 71.976 255.154 71.568C254.782 71.16 254.596 70.662 254.596 70.074V64.44H253.084L253.228 63.18H254.596V61.002L256.216 60.84V63.18H258.538V64.44H256.216V69.084C256.216 69.696 256.252 70.116 256.324 70.344C256.396 70.572 256.546 70.722 256.774 70.794C257.014 70.854 257.446 70.884 258.07 70.884H258.484L258.358 72.18H256.9ZM263.704 72.18C262.804 72.18 262.024 71.982 261.364 71.586C260.704 71.178 260.2 70.626 259.852 69.93C259.504 69.234 259.33 68.454 259.33 67.59C259.33 66.726 259.504 65.946 259.852 65.25C260.2 64.554 260.704 64.008 261.364 63.612C262.024 63.204 262.804 63 263.704 63C264.592 63 265.366 63.204 266.026 63.612C266.698 64.008 267.208 64.554 267.556 65.25C267.904 65.946 268.078 66.726 268.078 67.59C268.078 68.454 267.904 69.234 267.556 69.93C267.208 70.626 266.698 71.178 266.026 71.586C265.366 71.982 264.592 72.18 263.704 72.18ZM263.704 70.74C264.568 70.74 265.234 70.464 265.702 69.912C266.182 69.36 266.422 68.586 266.422 67.59C266.422 66.594 266.182 65.82 265.702 65.268C265.234 64.716 264.568 64.44 263.704 64.44C262.84 64.44 262.168 64.716 261.688 65.268C261.22 65.82 260.986 66.594 260.986 67.59C260.986 68.586 261.22 69.36 261.688 69.912C262.168 70.464 262.84 70.74 263.704 70.74ZM272.25 72.18C271.554 72.18 270.942 72.102 270.414 71.946C269.898 71.778 269.502 71.598 269.226 71.406L269.424 69.84C269.664 70.056 270.03 70.26 270.522 70.452C271.026 70.644 271.578 70.74 272.178 70.74C272.742 70.74 273.174 70.644 273.474 70.452C273.786 70.26 273.942 69.99 273.942 69.642C273.942 69.234 273.774 68.928 273.438 68.724C273.102 68.508 272.682 68.328 272.178 68.184C271.626 68.04 271.158 67.89 270.774 67.734C270.402 67.566 270.078 67.314 269.802 66.978C269.538 66.642 269.406 66.198 269.406 65.646C269.406 64.89 269.676 64.26 270.216 63.756C270.756 63.252 271.59 63 272.718 63C273.234 63 273.672 63.054 274.032 63.162C274.392 63.258 274.752 63.396 275.112 63.576L274.914 65.052C274.626 64.812 274.308 64.626 273.96 64.494C273.612 64.35 273.21 64.278 272.754 64.278C272.226 64.278 271.806 64.38 271.494 64.584C271.194 64.776 271.044 65.07 271.044 65.466C271.044 65.73 271.116 65.946 271.26 66.114C271.404 66.27 271.608 66.402 271.872 66.51C272.136 66.618 272.544 66.756 273.096 66.924C273.78 67.128 274.368 67.416 274.86 67.788C275.364 68.16 275.616 68.748 275.616 69.552C275.616 70.272 275.358 70.89 274.842 71.406C274.338 71.922 273.474 72.18 272.25 72.18ZM281.414 63C282.53 63 283.382 63.366 283.97 64.098C284.558 64.83 284.852 65.826 284.852 67.086V72H283.232V67.284C283.232 66.312 283.052 65.598 282.692 65.142C282.344 64.674 281.798 64.44 281.054 64.44C280.598 64.44 280.178 64.548 279.794 64.764C279.41 64.968 279.086 65.262 278.822 65.646V72H277.184V58.5H278.822V64.026C279.17 63.69 279.548 63.438 279.956 63.27C280.376 63.09 280.862 63 281.414 63ZM290.809 72.18C289.909 72.18 289.129 71.982 288.469 71.586C287.809 71.178 287.305 70.626 286.957 69.93C286.609 69.234 286.435 68.454 286.435 67.59C286.435 66.726 286.609 65.946 286.957 65.25C287.305 64.554 287.809 64.008 288.469 63.612C289.129 63.204 289.909 63 290.809 63C291.697 63 292.471 63.204 293.131 63.612C293.803 64.008 294.313 64.554 294.661 65.25C295.009 65.946 295.183 66.726 295.183 67.59C295.183 68.454 295.009 69.234 294.661 69.93C294.313 70.626 293.803 71.178 293.131 71.586C292.471 71.982 291.697 72.18 290.809 72.18ZM290.809 70.74C291.673 70.74 292.339 70.464 292.807 69.912C293.287 69.36 293.527 68.586 293.527 67.59C293.527 66.594 293.287 65.82 292.807 65.268C292.339 64.716 291.673 64.44 290.809 64.44C289.945 64.44 289.273 64.716 288.793 65.268C288.325 65.82 288.091 66.594 288.091 67.59C288.091 68.586 288.325 69.36 288.793 69.912C289.273 70.464 289.945 70.74 290.809 70.74ZM301.336 63C302.116 63 302.794 63.204 303.37 63.612C303.958 64.008 304.408 64.554 304.72 65.25C305.032 65.946 305.188 66.726 305.188 67.59C305.188 68.466 305.038 69.252 304.738 69.948C304.45 70.632 304.018 71.178 303.442 71.586C302.866 71.982 302.164 72.18 301.336 72.18C300.724 72.18 300.166 72.072 299.662 71.856C299.158 71.64 298.762 71.328 298.474 70.92V76.356H296.854V63.18H298.114L298.294 64.404C299.038 63.468 300.052 63 301.336 63ZM301.03 70.74C301.81 70.74 302.422 70.464 302.866 69.912C303.31 69.348 303.532 68.574 303.532 67.59C303.532 66.606 303.31 65.838 302.866 65.286C302.422 64.722 301.81 64.44 301.03 64.44C300.262 64.44 299.626 64.71 299.122 65.25C298.63 65.79 298.384 66.57 298.384 67.59C298.384 68.646 298.63 69.438 299.122 69.966C299.614 70.482 300.25 70.74 301.03 70.74ZM176.956 90.598H172.132L170.926 94H169.126L173.644 81.4H175.444L179.962 94H178.162L176.956 90.598ZM176.416 89.05L174.544 83.794L172.672 89.05H176.416ZM188.808 80.5V94H187.368L187.188 92.92C186.888 93.328 186.498 93.64 186.018 93.856C185.538 94.072 185.028 94.18 184.488 94.18C183.744 94.18 183.066 93.976 182.454 93.568C181.842 93.16 181.356 92.608 180.996 91.912C180.648 91.216 180.474 90.448 180.474 89.608C180.474 88.792 180.636 88.03 180.96 87.322C181.296 86.614 181.77 86.05 182.382 85.63C182.994 85.21 183.696 85 184.488 85C185.016 85 185.514 85.096 185.982 85.288C186.45 85.48 186.852 85.774 187.188 86.17V80.5H188.808ZM184.776 92.74C185.208 92.74 185.622 92.632 186.018 92.416C186.414 92.188 186.738 91.84 186.99 91.372C187.242 90.904 187.368 90.316 187.368 89.608C187.368 88.948 187.242 88.378 186.99 87.898C186.738 87.418 186.408 87.058 186 86.818C185.604 86.566 185.196 86.44 184.776 86.44C183.96 86.44 183.312 86.74 182.832 87.34C182.364 87.928 182.13 88.684 182.13 89.608C182.13 90.496 182.37 91.24 182.85 91.84C183.33 92.44 183.972 92.74 184.776 92.74ZM194.833 94.18C193.933 94.18 193.153 93.982 192.493 93.586C191.833 93.178 191.329 92.626 190.981 91.93C190.633 91.234 190.459 90.454 190.459 89.59C190.459 88.726 190.633 87.946 190.981 87.25C191.329 86.554 191.833 86.008 192.493 85.612C193.153 85.204 193.933 85 194.833 85C195.721 85 196.495 85.204 197.155 85.612C197.827 86.008 198.337 86.554 198.685 87.25C199.033 87.946 199.207 88.726 199.207 89.59C199.207 90.454 199.033 91.234 198.685 91.93C198.337 92.626 197.827 93.178 197.155 93.586C196.495 93.982 195.721 94.18 194.833 94.18ZM194.833 92.74C195.697 92.74 196.363 92.464 196.831 91.912C197.311 91.36 197.551 90.586 197.551 89.59C197.551 88.594 197.311 87.82 196.831 87.268C196.363 86.716 195.697 86.44 194.833 86.44C193.969 86.44 193.297 86.716 192.817 87.268C192.349 87.82 192.115 88.594 192.115 89.59C192.115 90.586 192.349 91.36 192.817 91.912C193.297 92.464 193.969 92.74 194.833 92.74ZM205.215 85C206.007 85 206.703 85.21 207.303 85.63C207.915 86.05 208.383 86.614 208.707 87.322C209.031 88.018 209.193 88.774 209.193 89.59C209.193 90.43 209.013 91.204 208.653 91.912C208.305 92.608 207.825 93.16 207.213 93.568C206.613 93.976 205.947 94.18 205.215 94.18C204.675 94.18 204.153 94.072 203.649 93.856C203.145 93.628 202.755 93.316 202.479 92.92L202.299 94H200.859V80.5H202.479V86.206C202.803 85.834 203.205 85.54 203.685 85.324C204.177 85.108 204.687 85 205.215 85ZM205.017 92.74C205.773 92.74 206.379 92.44 206.835 91.84C207.303 91.228 207.537 90.478 207.537 89.59C207.537 88.678 207.303 87.928 206.835 87.34C206.379 86.74 205.773 86.44 205.017 86.44C204.273 86.44 203.649 86.716 203.145 87.268C202.641 87.808 202.389 88.582 202.389 89.59C202.389 90.634 202.635 91.42 203.127 91.948C203.631 92.476 204.261 92.74 205.017 92.74ZM215.092 94.18C214.084 94.18 213.22 93.976 212.5 93.568C211.792 93.148 211.252 92.584 210.88 91.876C210.508 91.168 210.322 90.382 210.322 89.518C210.322 88.69 210.49 87.934 210.826 87.25C211.174 86.554 211.672 86.008 212.32 85.612C212.98 85.204 213.754 85 214.642 85C215.77 85 216.682 85.33 217.378 85.99C218.086 86.65 218.44 87.562 218.44 88.726C218.44 89.026 218.416 89.314 218.368 89.59H211.978C212.086 90.73 212.434 91.54 213.022 92.02C213.61 92.5 214.366 92.74 215.29 92.74C216.214 92.74 217.06 92.566 217.828 92.218L218.044 93.496C217.024 93.952 216.04 94.18 215.092 94.18ZM216.766 88.474C216.766 87.838 216.586 87.34 216.226 86.98C215.866 86.62 215.326 86.44 214.606 86.44C213.91 86.44 213.364 86.614 212.968 86.962C212.572 87.298 212.29 87.802 212.122 88.474H216.766ZM224.458 81.4H226.168V94H224.458V81.4ZM230.796 94.18C230.004 94.18 229.422 93.976 229.05 93.568C228.69 93.16 228.51 92.656 228.51 92.056V80.5H230.13V91.12C230.13 91.648 230.16 92.032 230.22 92.272C230.292 92.512 230.424 92.674 230.616 92.758C230.808 92.842 231.12 92.884 231.552 92.884L231.318 94.18H230.796ZM235.05 94.18C234.258 94.18 233.676 93.976 233.304 93.568C232.944 93.16 232.764 92.656 232.764 92.056V80.5H234.384V91.12C234.384 91.648 234.414 92.032 234.474 92.272C234.546 92.512 234.678 92.674 234.87 92.758C235.062 92.842 235.374 92.884 235.806 92.884L235.572 94.18H235.05ZM244.272 85.18V94H242.832L242.652 93.028C242.364 93.424 242.022 93.718 241.626 93.91C241.242 94.09 240.768 94.18 240.204 94.18C239.148 94.18 238.338 93.862 237.774 93.226C237.222 92.578 236.946 91.606 236.946 90.31V85.18H238.566V89.86C238.566 90.82 238.728 91.54 239.052 92.02C239.388 92.5 239.91 92.74 240.618 92.74C241.038 92.74 241.428 92.656 241.788 92.488C242.16 92.32 242.448 92.074 242.652 91.75V85.18H244.272ZM248.977 94.18C248.281 94.18 247.669 94.102 247.141 93.946C246.625 93.778 246.229 93.598 245.953 93.406L246.151 91.84C246.391 92.056 246.757 92.26 247.249 92.452C247.753 92.644 248.305 92.74 248.905 92.74C249.469 92.74 249.901 92.644 250.201 92.452C250.513 92.26 250.669 91.99 250.669 91.642C250.669 91.234 250.501 90.928 250.165 90.724C249.829 90.508 249.409 90.328 248.905 90.184C248.353 90.04 247.885 89.89 247.501 89.734C247.129 89.566 246.805 89.314 246.529 88.978C246.265 88.642 246.133 88.198 246.133 87.646C246.133 86.89 246.403 86.26 246.943 85.756C247.483 85.252 248.317 85 249.445 85C249.961 85 250.399 85.054 250.759 85.162C251.119 85.258 251.479 85.396 251.839 85.576L251.641 87.052C251.353 86.812 251.035 86.626 250.687 86.494C250.339 86.35 249.937 86.278 249.481 86.278C248.953 86.278 248.533 86.38 248.221 86.584C247.921 86.776 247.771 87.07 247.771 87.466C247.771 87.73 247.843 87.946 247.987 88.114C248.131 88.27 248.335 88.402 248.599 88.51C248.863 88.618 249.271 88.756 249.823 88.924C250.507 89.128 251.095 89.416 251.587 89.788C252.091 90.16 252.343 90.748 252.343 91.552C252.343 92.272 252.085 92.89 251.569 93.406C251.065 93.922 250.201 94.18 248.977 94.18ZM256.97 94.18C256.19 94.18 255.608 93.976 255.224 93.568C254.852 93.16 254.666 92.662 254.666 92.074V86.44H253.154L253.298 85.18H254.666V83.002L256.286 82.84V85.18H258.608V86.44H256.286V91.084C256.286 91.696 256.322 92.116 256.394 92.344C256.466 92.572 256.616 92.722 256.844 92.794C257.084 92.854 257.516 92.884 258.14 92.884H258.554L258.428 94.18H256.97ZM259.993 85.18H261.325L261.523 86.638C261.979 86.074 262.411 85.66 262.819 85.396C263.239 85.132 263.677 85 264.133 85C264.277 85 264.415 85.018 264.547 85.054L264.385 86.836C264.229 86.8 264.049 86.782 263.845 86.782C263.401 86.782 262.981 86.884 262.585 87.088C262.189 87.28 261.901 87.508 261.721 87.772V94H259.993V85.18ZM267.617 94.18C266.801 94.18 266.141 93.94 265.637 93.46C265.145 92.98 264.899 92.368 264.899 91.624C264.899 90.508 265.427 89.71 266.483 89.23C267.539 88.75 268.769 88.498 270.173 88.474C270.173 87.682 270.017 87.148 269.705 86.872C269.405 86.584 268.919 86.44 268.247 86.44C267.875 86.44 267.503 86.5 267.131 86.62C266.759 86.728 266.357 86.932 265.925 87.232L265.691 85.918C266.051 85.642 266.495 85.42 267.023 85.252C267.551 85.084 268.103 85 268.679 85C269.435 85 270.035 85.132 270.479 85.396C270.935 85.66 271.265 86.098 271.469 86.71C271.685 87.322 271.793 88.162 271.793 89.23V91.03C271.793 91.51 271.811 91.876 271.847 92.128C271.895 92.368 271.991 92.554 272.135 92.686C272.279 92.818 272.501 92.884 272.801 92.884H272.963L272.711 94.18H272.585C272.081 94.18 271.685 94.132 271.397 94.036C271.109 93.94 270.887 93.802 270.731 93.622C270.587 93.442 270.449 93.196 270.317 92.884C269.573 93.748 268.673 94.18 267.617 94.18ZM267.923 92.884C268.355 92.884 268.769 92.776 269.165 92.56C269.573 92.344 269.909 92.056 270.173 91.696V89.59C268.877 89.638 267.947 89.812 267.383 90.112C266.831 90.4 266.555 90.874 266.555 91.534C266.555 91.99 266.675 92.332 266.915 92.56C267.167 92.776 267.503 92.884 267.923 92.884ZM277.079 94.18C276.299 94.18 275.717 93.976 275.333 93.568C274.961 93.16 274.775 92.662 274.775 92.074V86.44H273.263L273.407 85.18H274.775V83.002L276.395 82.84V85.18H278.717V86.44H276.395V91.084C276.395 91.696 276.431 92.116 276.503 92.344C276.575 92.572 276.725 92.722 276.953 92.794C277.193 92.854 277.625 92.884 278.249 92.884H278.663L278.537 94.18H277.079ZM283.884 94.18C282.984 94.18 282.204 93.982 281.544 93.586C280.884 93.178 280.38 92.626 280.032 91.93C279.684 91.234 279.51 90.454 279.51 89.59C279.51 88.726 279.684 87.946 280.032 87.25C280.38 86.554 280.884 86.008 281.544 85.612C282.204 85.204 282.984 85 283.884 85C284.772 85 285.546 85.204 286.206 85.612C286.878 86.008 287.388 86.554 287.736 87.25C288.084 87.946 288.258 88.726 288.258 89.59C288.258 90.454 288.084 91.234 287.736 91.93C287.388 92.626 286.878 93.178 286.206 93.586C285.546 93.982 284.772 94.18 283.884 94.18ZM283.884 92.74C284.748 92.74 285.414 92.464 285.882 91.912C286.362 91.36 286.602 90.586 286.602 89.59C286.602 88.594 286.362 87.82 285.882 87.268C285.414 86.716 284.748 86.44 283.884 86.44C283.02 86.44 282.348 86.716 281.868 87.268C281.4 87.82 281.166 88.594 281.166 89.59C281.166 90.586 281.4 91.36 281.868 91.912C282.348 92.464 283.02 92.74 283.884 92.74ZM289.928 85.18H291.26L291.458 86.638C291.914 86.074 292.346 85.66 292.754 85.396C293.174 85.132 293.612 85 294.068 85C294.212 85 294.35 85.018 294.482 85.054L294.32 86.836C294.164 86.8 293.984 86.782 293.78 86.782C293.336 86.782 292.916 86.884 292.52 87.088C292.124 87.28 291.836 87.508 291.656 87.772V94H289.928V85.18ZM170.44 103.4H178.126V104.948H172.15V108.638H176.758V110.186H172.15V116H170.44V103.4ZM179.397 103.4H181.017V105.2H179.397V103.4ZM179.397 107.18H181.017V116H179.397V107.18ZM186.775 120.5C185.527 120.5 184.513 120.272 183.733 119.816C182.965 119.36 182.581 118.712 182.581 117.872C182.581 116.948 183.091 116.258 184.111 115.802C183.535 115.514 183.247 115.142 183.247 114.686C183.247 114.11 183.595 113.684 184.291 113.408C183.799 113.108 183.421 112.7 183.157 112.184C182.893 111.668 182.761 111.086 182.761 110.438C182.761 109.79 182.905 109.208 183.193 108.692C183.493 108.164 183.913 107.75 184.453 107.45C185.005 107.15 185.653 107 186.397 107C187.189 107 187.909 107.228 188.557 107.684C189.193 107.324 189.925 107.144 190.753 107.144H190.897L190.699 108.224H190.285C190.177 108.224 190.021 108.236 189.817 108.26C189.613 108.284 189.433 108.314 189.277 108.35C189.529 108.638 189.721 108.962 189.853 109.322C189.985 109.682 190.051 110.054 190.051 110.438C190.051 111.11 189.901 111.716 189.601 112.256C189.313 112.784 188.893 113.204 188.341 113.516C187.789 113.816 187.141 113.966 186.397 113.966C185.965 113.966 185.569 113.912 185.209 113.804C184.933 113.9 184.795 114.056 184.795 114.272C184.795 114.56 185.125 114.752 185.785 114.848L188.143 115.226C189.127 115.382 189.871 115.664 190.375 116.072C190.879 116.48 191.131 117.044 191.131 117.764C191.131 118.664 190.741 119.342 189.961 119.798C189.193 120.266 188.131 120.5 186.775 120.5ZM186.397 112.67C187.069 112.67 187.585 112.472 187.945 112.076C188.317 111.668 188.503 111.128 188.503 110.456C188.503 109.808 188.317 109.286 187.945 108.89C187.585 108.494 187.069 108.296 186.397 108.296C185.725 108.296 185.209 108.494 184.849 108.89C184.489 109.286 184.309 109.808 184.309 110.456C184.309 111.128 184.489 111.668 184.849 112.076C185.209 112.472 185.725 112.67 186.397 112.67ZM186.919 119.06C187.747 119.06 188.383 118.952 188.827 118.736C189.271 118.52 189.493 118.208 189.493 117.8C189.493 117.488 189.355 117.236 189.079 117.044C188.815 116.864 188.413 116.72 187.873 116.612L185.353 116.18C184.993 116.348 184.699 116.552 184.471 116.792C184.243 117.044 184.129 117.32 184.129 117.62C184.129 118.112 184.375 118.472 184.867 118.7C185.359 118.94 186.043 119.06 186.919 119.06ZM202.472 107C204.728 107 205.856 108.266 205.856 110.798V116H204.236V110.816C204.236 109.988 204.074 109.388 203.75 109.016C203.426 108.632 202.898 108.44 202.166 108.44C200.606 108.44 199.826 109.256 199.826 110.888V116H198.206V111.14C198.206 110.132 198.026 109.43 197.666 109.034C197.318 108.638 196.808 108.44 196.136 108.44C195.608 108.44 195.14 108.536 194.732 108.728C194.324 108.92 194.012 109.208 193.796 109.592V116H192.176V107.18H193.436L193.616 108.116C194.06 107.72 194.504 107.438 194.948 107.27C195.404 107.09 195.89 107 196.406 107C197.75 107 198.698 107.588 199.25 108.764C199.862 107.588 200.936 107 202.472 107ZM210.013 116.18C209.197 116.18 208.537 115.94 208.033 115.46C207.541 114.98 207.295 114.368 207.295 113.624C207.295 112.508 207.823 111.71 208.879 111.23C209.935 110.75 211.165 110.498 212.569 110.474C212.569 109.682 212.413 109.148 212.101 108.872C211.801 108.584 211.315 108.44 210.643 108.44C210.271 108.44 209.899 108.5 209.527 108.62C209.155 108.728 208.753 108.932 208.321 109.232L208.087 107.918C208.447 107.642 208.891 107.42 209.419 107.252C209.947 107.084 210.499 107 211.075 107C211.831 107 212.431 107.132 212.875 107.396C213.331 107.66 213.661 108.098 213.865 108.71C214.081 109.322 214.189 110.162 214.189 111.23V113.03C214.189 113.51 214.207 113.876 214.243 114.128C214.291 114.368 214.387 114.554 214.531 114.686C214.675 114.818 214.897 114.884 215.197 114.884H215.359L215.107 116.18H214.981C214.477 116.18 214.081 116.132 213.793 116.036C213.505 115.94 213.283 115.802 213.127 115.622C212.983 115.442 212.845 115.196 212.713 114.884C211.969 115.748 211.069 116.18 210.013 116.18ZM210.319 114.884C210.751 114.884 211.165 114.776 211.561 114.56C211.969 114.344 212.305 114.056 212.569 113.696V111.59C211.273 111.638 210.343 111.812 209.779 112.112C209.227 112.4 208.951 112.874 208.951 113.534C208.951 113.99 209.071 114.332 209.311 114.56C209.563 114.776 209.899 114.884 210.319 114.884ZM170.44 125.4H172.15V138H170.44V125.4ZM178.884 129C181.284 129 182.484 130.38 182.484 133.14V138H180.864V133.14C180.864 132.192 180.684 131.508 180.324 131.088C179.976 130.656 179.388 130.44 178.56 130.44C178.032 130.44 177.552 130.536 177.12 130.728C176.688 130.92 176.364 131.208 176.148 131.592V138H174.528V129.18H175.788L175.968 130.116C176.436 129.696 176.904 129.408 177.372 129.252C177.852 129.084 178.356 129 178.884 129ZM193.355 125.4L188.837 138H187.037L182.519 125.4H184.319L187.937 135.606L191.555 125.4H193.355ZM194.532 125.4H196.152V127.2H194.532V125.4ZM194.532 129.18H196.152V138H194.532V129.18ZM200.848 138.18C200.152 138.18 199.54 138.102 199.012 137.946C198.496 137.778 198.1 137.598 197.824 137.406L198.022 135.84C198.262 136.056 198.628 136.26 199.12 136.452C199.624 136.644 200.176 136.74 200.776 136.74C201.34 136.74 201.772 136.644 202.072 136.452C202.384 136.26 202.54 135.99 202.54 135.642C202.54 135.234 202.372 134.928 202.036 134.724C201.7 134.508 201.28 134.328 200.776 134.184C200.224 134.04 199.756 133.89 199.372 133.734C199 133.566 198.676 133.314 198.4 132.978C198.136 132.642 198.004 132.198 198.004 131.646C198.004 130.89 198.274 130.26 198.814 129.756C199.354 129.252 200.188 129 201.316 129C201.832 129 202.27 129.054 202.63 129.162C202.99 129.258 203.35 129.396 203.71 129.576L203.512 131.052C203.224 130.812 202.906 130.626 202.558 130.494C202.21 130.35 201.808 130.278 201.352 130.278C200.824 130.278 200.404 130.38 200.092 130.584C199.792 130.776 199.642 131.07 199.642 131.466C199.642 131.73 199.714 131.946 199.858 132.114C200.002 132.27 200.206 132.402 200.47 132.51C200.734 132.618 201.142 132.756 201.694 132.924C202.378 133.128 202.966 133.416 203.458 133.788C203.962 134.16 204.214 134.748 204.214 135.552C204.214 136.272 203.956 136.89 203.44 137.406C202.936 137.922 202.072 138.18 200.848 138.18ZM205.799 125.4H207.419V127.2H205.799V125.4ZM205.799 129.18H207.419V138H205.799V129.18ZM213.466 138.18C212.566 138.18 211.786 137.982 211.126 137.586C210.466 137.178 209.962 136.626 209.614 135.93C209.266 135.234 209.092 134.454 209.092 133.59C209.092 132.726 209.266 131.946 209.614 131.25C209.962 130.554 210.466 130.008 211.126 129.612C211.786 129.204 212.566 129 213.466 129C214.354 129 215.128 129.204 215.788 129.612C216.46 130.008 216.97 130.554 217.318 131.25C217.666 131.946 217.84 132.726 217.84 133.59C217.84 134.454 217.666 135.234 217.318 135.93C216.97 136.626 216.46 137.178 215.788 137.586C215.128 137.982 214.354 138.18 213.466 138.18ZM213.466 136.74C214.33 136.74 214.996 136.464 215.464 135.912C215.944 135.36 216.184 134.586 216.184 133.59C216.184 132.594 215.944 131.82 215.464 131.268C214.996 130.716 214.33 130.44 213.466 130.44C212.602 130.44 211.93 130.716 211.45 131.268C210.982 131.82 210.748 132.594 210.748 133.59C210.748 134.586 210.982 135.36 211.45 135.912C211.93 136.464 212.602 136.74 213.466 136.74ZM223.866 129C226.266 129 227.466 130.38 227.466 133.14V138H225.846V133.14C225.846 132.192 225.666 131.508 225.306 131.088C224.958 130.656 224.37 130.44 223.542 130.44C223.014 130.44 222.534 130.536 222.102 130.728C221.67 130.92 221.346 131.208 221.13 131.592V138H219.51V129.18H220.77L220.95 130.116C221.418 129.696 221.886 129.408 222.354 129.252C222.834 129.084 223.338 129 223.866 129ZM176.956 156.598H172.132L170.926 160H169.126L173.644 147.4H175.444L179.962 160H178.162L176.956 156.598ZM176.416 155.05L174.544 149.794L172.672 155.05H176.416ZM188.808 146.5V160H187.368L187.188 158.92C186.888 159.328 186.498 159.64 186.018 159.856C185.538 160.072 185.028 160.18 184.488 160.18C183.744 160.18 183.066 159.976 182.454 159.568C181.842 159.16 181.356 158.608 180.996 157.912C180.648 157.216 180.474 156.448 180.474 155.608C180.474 154.792 180.636 154.03 180.96 153.322C181.296 152.614 181.77 152.05 182.382 151.63C182.994 151.21 183.696 151 184.488 151C185.016 151 185.514 151.096 185.982 151.288C186.45 151.48 186.852 151.774 187.188 152.17V146.5H188.808ZM184.776 158.74C185.208 158.74 185.622 158.632 186.018 158.416C186.414 158.188 186.738 157.84 186.99 157.372C187.242 156.904 187.368 156.316 187.368 155.608C187.368 154.948 187.242 154.378 186.99 153.898C186.738 153.418 186.408 153.058 186 152.818C185.604 152.566 185.196 152.44 184.776 152.44C183.96 152.44 183.312 152.74 182.832 153.34C182.364 153.928 182.13 154.684 182.13 155.608C182.13 156.496 182.37 157.24 182.85 157.84C183.33 158.44 183.972 158.74 184.776 158.74ZM194.833 160.18C193.933 160.18 193.153 159.982 192.493 159.586C191.833 159.178 191.329 158.626 190.981 157.93C190.633 157.234 190.459 156.454 190.459 155.59C190.459 154.726 190.633 153.946 190.981 153.25C191.329 152.554 191.833 152.008 192.493 151.612C193.153 151.204 193.933 151 194.833 151C195.721 151 196.495 151.204 197.155 151.612C197.827 152.008 198.337 152.554 198.685 153.25C199.033 153.946 199.207 154.726 199.207 155.59C199.207 156.454 199.033 157.234 198.685 157.93C198.337 158.626 197.827 159.178 197.155 159.586C196.495 159.982 195.721 160.18 194.833 160.18ZM194.833 158.74C195.697 158.74 196.363 158.464 196.831 157.912C197.311 157.36 197.551 156.586 197.551 155.59C197.551 154.594 197.311 153.82 196.831 153.268C196.363 152.716 195.697 152.44 194.833 152.44C193.969 152.44 193.297 152.716 192.817 153.268C192.349 153.82 192.115 154.594 192.115 155.59C192.115 156.586 192.349 157.36 192.817 157.912C193.297 158.464 193.969 158.74 194.833 158.74ZM205.215 151C206.007 151 206.703 151.21 207.303 151.63C207.915 152.05 208.383 152.614 208.707 153.322C209.031 154.018 209.193 154.774 209.193 155.59C209.193 156.43 209.013 157.204 208.653 157.912C208.305 158.608 207.825 159.16 207.213 159.568C206.613 159.976 205.947 160.18 205.215 160.18C204.675 160.18 204.153 160.072 203.649 159.856C203.145 159.628 202.755 159.316 202.479 158.92L202.299 160H200.859V146.5H202.479V152.206C202.803 151.834 203.205 151.54 203.685 151.324C204.177 151.108 204.687 151 205.215 151ZM205.017 158.74C205.773 158.74 206.379 158.44 206.835 157.84C207.303 157.228 207.537 156.478 207.537 155.59C207.537 154.678 207.303 153.928 206.835 153.34C206.379 152.74 205.773 152.44 205.017 152.44C204.273 152.44 203.649 152.716 203.145 153.268C202.641 153.808 202.389 154.582 202.389 155.59C202.389 156.634 202.635 157.42 203.127 157.948C203.631 158.476 204.261 158.74 205.017 158.74ZM215.092 160.18C214.084 160.18 213.22 159.976 212.5 159.568C211.792 159.148 211.252 158.584 210.88 157.876C210.508 157.168 210.322 156.382 210.322 155.518C210.322 154.69 210.49 153.934 210.826 153.25C211.174 152.554 211.672 152.008 212.32 151.612C212.98 151.204 213.754 151 214.642 151C215.77 151 216.682 151.33 217.378 151.99C218.086 152.65 218.44 153.562 218.44 154.726C218.44 155.026 218.416 155.314 218.368 155.59H211.978C212.086 156.73 212.434 157.54 213.022 158.02C213.61 158.5 214.366 158.74 215.29 158.74C216.214 158.74 217.06 158.566 217.828 158.218L218.044 159.496C217.024 159.952 216.04 160.18 215.092 160.18ZM216.766 154.474C216.766 153.838 216.586 153.34 216.226 152.98C215.866 152.62 215.326 152.44 214.606 152.44C213.91 152.44 213.364 152.614 212.968 152.962C212.572 153.298 212.29 153.802 212.122 154.474H216.766ZM227.374 153.646L223.162 147.4H225.142L228.364 152.17L231.568 147.4H233.548L229.354 153.646L233.62 160H231.64L228.364 155.122L225.07 160H223.09L227.374 153.646ZM235.128 147.4H239.79C241.014 147.4 242.1 147.652 243.048 148.156C243.996 148.648 244.734 149.374 245.262 150.334C245.79 151.282 246.054 152.404 246.054 153.7C246.054 154.996 245.79 156.124 245.262 157.084C244.734 158.032 243.996 158.758 243.048 159.262C242.1 159.754 241.014 160 239.79 160H235.128V147.4ZM239.79 158.452C241.194 158.452 242.274 158.026 243.03 157.174C243.798 156.31 244.182 155.152 244.182 153.7C244.182 152.248 243.798 151.096 243.03 150.244C242.274 149.38 241.194 148.948 239.79 148.948H236.838V158.452H239.79ZM176.758 175.142C177.55 175.334 178.156 175.706 178.576 176.258C178.996 176.798 179.206 177.512 179.206 178.4C179.206 179.516 178.846 180.398 178.126 181.046C177.418 181.682 176.44 182 175.192 182H170.44V169.4H174.418C175.57 169.4 176.458 169.658 177.082 170.174C177.718 170.69 178.036 171.458 178.036 172.478C178.036 173.078 177.928 173.612 177.712 174.08C177.496 174.548 177.178 174.902 176.758 175.142ZM172.15 174.638H174.202C174.874 174.638 175.384 174.506 175.732 174.242C176.092 173.966 176.272 173.48 176.272 172.784C176.272 172.088 176.092 171.608 175.732 171.344C175.384 171.068 174.874 170.93 174.202 170.93H172.15V174.638ZM175.048 180.452C175.756 180.452 176.314 180.278 176.722 179.93C177.13 179.57 177.334 179.042 177.334 178.346C177.334 176.906 176.572 176.186 175.048 176.186H172.15V180.452H175.048ZM182.89 182.18C182.074 182.18 181.414 181.94 180.91 181.46C180.418 180.98 180.172 180.368 180.172 179.624C180.172 178.508 180.7 177.71 181.756 177.23C182.812 176.75 184.042 176.498 185.446 176.474C185.446 175.682 185.29 175.148 184.978 174.872C184.678 174.584 184.192 174.44 183.52 174.44C183.148 174.44 182.776 174.5 182.404 174.62C182.032 174.728 181.63 174.932 181.198 175.232L180.964 173.918C181.324 173.642 181.768 173.42 182.296 173.252C182.824 173.084 183.376 173 183.952 173C184.708 173 185.308 173.132 185.752 173.396C186.208 173.66 186.538 174.098 186.742 174.71C186.958 175.322 187.066 176.162 187.066 177.23V179.03C187.066 179.51 187.084 179.876 187.12 180.128C187.168 180.368 187.264 180.554 187.408 180.686C187.552 180.818 187.774 180.884 188.074 180.884H188.236L187.984 182.18H187.858C187.354 182.18 186.958 182.132 186.67 182.036C186.382 181.94 186.16 181.802 186.004 181.622C185.86 181.442 185.722 181.196 185.59 180.884C184.846 181.748 183.946 182.18 182.89 182.18ZM183.196 180.884C183.628 180.884 184.042 180.776 184.438 180.56C184.846 180.344 185.182 180.056 185.446 179.696V177.59C184.15 177.638 183.22 177.812 182.656 178.112C182.104 178.4 181.828 178.874 181.828 179.534C181.828 179.99 181.948 180.332 182.188 180.56C182.44 180.776 182.776 180.884 183.196 180.884ZM191.755 182.18C190.963 182.18 190.381 181.976 190.009 181.568C189.649 181.16 189.469 180.656 189.469 180.056V168.5H191.089V179.12C191.089 179.648 191.119 180.032 191.179 180.272C191.251 180.512 191.383 180.674 191.575 180.758C191.767 180.842 192.079 180.884 192.511 180.884L192.277 182.18H191.755ZM196.243 182.18C195.547 182.18 194.935 182.102 194.407 181.946C193.891 181.778 193.495 181.598 193.219 181.406L193.417 179.84C193.657 180.056 194.023 180.26 194.515 180.452C195.019 180.644 195.571 180.74 196.171 180.74C196.735 180.74 197.167 180.644 197.467 180.452C197.779 180.26 197.935 179.99 197.935 179.642C197.935 179.234 197.767 178.928 197.431 178.724C197.095 178.508 196.675 178.328 196.171 178.184C195.619 178.04 195.151 177.89 194.767 177.734C194.395 177.566 194.071 177.314 193.795 176.978C193.531 176.642 193.399 176.198 193.399 175.646C193.399 174.89 193.669 174.26 194.209 173.756C194.749 173.252 195.583 173 196.711 173C197.227 173 197.665 173.054 198.025 173.162C198.385 173.258 198.745 173.396 199.105 173.576L198.907 175.052C198.619 174.812 198.301 174.626 197.953 174.494C197.605 174.35 197.203 174.278 196.747 174.278C196.219 174.278 195.799 174.38 195.487 174.584C195.187 174.776 195.037 175.07 195.037 175.466C195.037 175.73 195.109 175.946 195.253 176.114C195.397 176.27 195.601 176.402 195.865 176.51C196.129 176.618 196.537 176.756 197.089 176.924C197.773 177.128 198.361 177.416 198.853 177.788C199.357 178.16 199.609 178.748 199.609 179.552C199.609 180.272 199.351 180.89 198.835 181.406C198.331 181.922 197.467 182.18 196.243 182.18ZM203.246 182.18C202.43 182.18 201.77 181.94 201.266 181.46C200.774 180.98 200.528 180.368 200.528 179.624C200.528 178.508 201.056 177.71 202.112 177.23C203.168 176.75 204.398 176.498 205.802 176.474C205.802 175.682 205.646 175.148 205.334 174.872C205.034 174.584 204.548 174.44 203.876 174.44C203.504 174.44 203.132 174.5 202.76 174.62C202.388 174.728 201.986 174.932 201.554 175.232L201.32 173.918C201.68 173.642 202.124 173.42 202.652 173.252C203.18 173.084 203.732 173 204.308 173C205.064 173 205.664 173.132 206.108 173.396C206.564 173.66 206.894 174.098 207.098 174.71C207.314 175.322 207.422 176.162 207.422 177.23V179.03C207.422 179.51 207.44 179.876 207.476 180.128C207.524 180.368 207.62 180.554 207.764 180.686C207.908 180.818 208.13 180.884 208.43 180.884H208.592L208.34 182.18H208.214C207.71 182.18 207.314 182.132 207.026 182.036C206.738 181.94 206.516 181.802 206.36 181.622C206.216 181.442 206.078 181.196 205.946 180.884C205.202 181.748 204.302 182.18 203.246 182.18ZM203.552 180.884C203.984 180.884 204.398 180.776 204.794 180.56C205.202 180.344 205.538 180.056 205.802 179.696V177.59C204.506 177.638 203.576 177.812 203.012 178.112C202.46 178.4 202.184 178.874 202.184 179.534C202.184 179.99 202.304 180.332 202.544 180.56C202.796 180.776 203.132 180.884 203.552 180.884ZM220.138 173C222.394 173 223.522 174.266 223.522 176.798V182H221.902V176.816C221.902 175.988 221.74 175.388 221.416 175.016C221.092 174.632 220.564 174.44 219.832 174.44C218.272 174.44 217.492 175.256 217.492 176.888V182H215.872V177.14C215.872 176.132 215.692 175.43 215.332 175.034C214.984 174.638 214.474 174.44 213.802 174.44C213.274 174.44 212.806 174.536 212.398 174.728C211.99 174.92 211.678 175.208 211.462 175.592V182H209.842V173.18H211.102L211.282 174.116C211.726 173.72 212.17 173.438 212.614 173.27C213.07 173.09 213.556 173 214.072 173C215.416 173 216.364 173.588 216.916 174.764C217.528 173.588 218.602 173 220.138 173ZM225.627 169.4H227.247V171.2H225.627V169.4ZM225.627 173.18H227.247V182H225.627V173.18ZM237.272 173.18V186.356H235.652V180.938C235.364 181.346 234.98 181.658 234.5 181.874C234.02 182.078 233.48 182.18 232.88 182.18C232.04 182.18 231.32 181.982 230.72 181.586C230.132 181.178 229.688 180.632 229.388 179.948C229.088 179.252 228.938 178.466 228.938 177.59C228.938 176.774 229.094 176.018 229.406 175.322C229.73 174.614 230.186 174.05 230.774 173.63C231.374 173.21 232.07 173 232.862 173C233.546 173 234.122 173.114 234.59 173.342C235.058 173.57 235.472 173.918 235.832 174.386L236.012 173.18H237.272ZM233.096 180.74C233.876 180.74 234.512 180.482 235.004 179.966C235.496 179.438 235.742 178.646 235.742 177.59C235.742 176.57 235.49 175.79 234.986 175.25C234.494 174.71 233.864 174.44 233.096 174.44C232.316 174.44 231.704 174.722 231.26 175.286C230.816 175.838 230.594 176.606 230.594 177.59C230.594 178.574 230.816 179.348 231.26 179.912C231.704 180.464 232.316 180.74 233.096 180.74ZM175.516 204.252C173.776 204.252 172.468 203.766 171.592 202.794C170.728 201.81 170.296 200.43 170.296 198.654V191.4H172.006V198.186C172.006 199.566 172.252 200.664 172.744 201.48C173.236 202.296 174.16 202.704 175.516 202.704C176.872 202.704 177.796 202.296 178.288 201.48C178.78 200.652 179.026 199.554 179.026 198.186V191.4H180.736V198.654C180.736 200.43 180.298 201.81 179.422 202.794C178.558 203.766 177.256 204.252 175.516 204.252ZM185.397 204.18C184.701 204.18 184.089 204.102 183.561 203.946C183.045 203.778 182.649 203.598 182.373 203.406L182.571 201.84C182.811 202.056 183.177 202.26 183.669 202.452C184.173 202.644 184.725 202.74 185.325 202.74C185.889 202.74 186.321 202.644 186.621 202.452C186.933 202.26 187.089 201.99 187.089 201.642C187.089 201.234 186.921 200.928 186.585 200.724C186.249 200.508 185.829 200.328 185.325 200.184C184.773 200.04 184.305 199.89 183.921 199.734C183.549 199.566 183.225 199.314 182.949 198.978C182.685 198.642 182.553 198.198 182.553 197.646C182.553 196.89 182.823 196.26 183.363 195.756C183.903 195.252 184.737 195 185.865 195C186.381 195 186.819 195.054 187.179 195.162C187.539 195.258 187.899 195.396 188.259 195.576L188.061 197.052C187.773 196.812 187.455 196.626 187.107 196.494C186.759 196.35 186.357 196.278 185.901 196.278C185.373 196.278 184.953 196.38 184.641 196.584C184.341 196.776 184.191 197.07 184.191 197.466C184.191 197.73 184.263 197.946 184.407 198.114C184.551 198.27 184.755 198.402 185.019 198.51C185.283 198.618 185.691 198.756 186.243 198.924C186.927 199.128 187.515 199.416 188.007 199.788C188.511 200.16 188.763 200.748 188.763 201.552C188.763 202.272 188.505 202.89 187.989 203.406C187.485 203.922 186.621 204.18 185.397 204.18ZM192.4 204.18C191.584 204.18 190.924 203.94 190.42 203.46C189.928 202.98 189.682 202.368 189.682 201.624C189.682 200.508 190.21 199.71 191.266 199.23C192.322 198.75 193.552 198.498 194.956 198.474C194.956 197.682 194.8 197.148 194.488 196.872C194.188 196.584 193.702 196.44 193.03 196.44C192.658 196.44 192.286 196.5 191.914 196.62C191.542 196.728 191.14 196.932 190.708 197.232L190.474 195.918C190.834 195.642 191.278 195.42 191.806 195.252C192.334 195.084 192.886 195 193.462 195C194.218 195 194.818 195.132 195.262 195.396C195.718 195.66 196.048 196.098 196.252 196.71C196.468 197.322 196.576 198.162 196.576 199.23V201.03C196.576 201.51 196.594 201.876 196.63 202.128C196.678 202.368 196.774 202.554 196.918 202.686C197.062 202.818 197.284 202.884 197.584 202.884H197.746L197.494 204.18H197.368C196.864 204.18 196.468 204.132 196.18 204.036C195.892 203.94 195.67 203.802 195.514 203.622C195.37 203.442 195.232 203.196 195.1 202.884C194.356 203.748 193.456 204.18 192.4 204.18ZM192.706 202.884C193.138 202.884 193.552 202.776 193.948 202.56C194.356 202.344 194.692 202.056 194.956 201.696V199.59C193.66 199.638 192.73 199.812 192.166 200.112C191.614 200.4 191.338 200.874 191.338 201.534C191.338 201.99 191.458 202.332 191.698 202.56C191.95 202.776 192.286 202.884 192.706 202.884ZM203.334 195C204.126 195 204.822 195.21 205.422 195.63C206.034 196.05 206.502 196.614 206.826 197.322C207.15 198.018 207.312 198.774 207.312 199.59C207.312 200.43 207.132 201.204 206.772 201.912C206.424 202.608 205.944 203.16 205.332 203.568C204.732 203.976 204.066 204.18 203.334 204.18C202.794 204.18 202.272 204.072 201.768 203.856C201.264 203.628 200.874 203.316 200.598 202.92L200.418 204H198.978V190.5H200.598V196.206C200.922 195.834 201.324 195.54 201.804 195.324C202.296 195.108 202.806 195 203.334 195ZM203.136 202.74C203.892 202.74 204.498 202.44 204.954 201.84C205.422 201.228 205.656 200.478 205.656 199.59C205.656 198.678 205.422 197.928 204.954 197.34C204.498 196.74 203.892 196.44 203.136 196.44C202.392 196.44 201.768 196.716 201.264 197.268C200.76 197.808 200.508 198.582 200.508 199.59C200.508 200.634 200.754 201.42 201.246 201.948C201.75 202.476 202.38 202.74 203.136 202.74ZM208.981 191.4H210.601V193.2H208.981V191.4ZM208.981 195.18H210.601V204H208.981V195.18ZM215.063 204.18C214.271 204.18 213.689 203.976 213.317 203.568C212.957 203.16 212.777 202.656 212.777 202.056V190.5H214.397V201.12C214.397 201.648 214.427 202.032 214.487 202.272C214.559 202.512 214.691 202.674 214.883 202.758C215.075 202.842 215.387 202.884 215.819 202.884L215.585 204.18H215.063ZM217.049 191.4H218.669V193.2H217.049V191.4ZM217.049 195.18H218.669V204H217.049V195.18ZM223.906 204.18C223.126 204.18 222.544 203.976 222.16 203.568C221.788 203.16 221.602 202.662 221.602 202.074V196.44H220.09L220.234 195.18H221.602V193.002L223.222 192.84V195.18H225.544V196.44H223.222V201.084C223.222 201.696 223.258 202.116 223.33 202.344C223.402 202.572 223.552 202.722 223.78 202.794C224.02 202.854 224.452 202.884 225.076 202.884H225.49L225.364 204.18H223.906ZM229.628 203.604L225.956 195.18H227.756L230.51 201.732L232.994 195.18H234.794L229.394 208.356H227.594L229.628 203.604ZM240.401 191.4H242.111V196.602H248.519V191.4H250.229V204H248.519V198.222H242.111V204H240.401V191.4ZM259.811 195.18V204H258.371L258.191 203.028C257.903 203.424 257.561 203.718 257.165 203.91C256.781 204.09 256.307 204.18 255.743 204.18C254.687 204.18 253.877 203.862 253.313 203.226C252.761 202.578 252.485 201.606 252.485 200.31V195.18H254.105V199.86C254.105 200.82 254.267 201.54 254.591 202.02C254.927 202.5 255.449 202.74 256.157 202.74C256.577 202.74 256.967 202.656 257.327 202.488C257.699 202.32 257.987 202.074 258.191 201.75V195.18H259.811ZM266.352 195C267.144 195 267.84 195.21 268.44 195.63C269.052 196.05 269.52 196.614 269.844 197.322C270.168 198.018 270.33 198.774 270.33 199.59C270.33 200.43 270.15 201.204 269.79 201.912C269.442 202.608 268.962 203.16 268.35 203.568C267.75 203.976 267.084 204.18 266.352 204.18C265.812 204.18 265.29 204.072 264.786 203.856C264.282 203.628 263.892 203.316 263.616 202.92L263.436 204H261.996V190.5H263.616V196.206C263.94 195.834 264.342 195.54 264.822 195.324C265.314 195.108 265.824 195 266.352 195ZM266.154 202.74C266.91 202.74 267.516 202.44 267.972 201.84C268.44 201.228 268.674 200.478 268.674 199.59C268.674 198.678 268.44 197.928 267.972 197.34C267.516 196.74 266.91 196.44 266.154 196.44C265.41 196.44 264.786 196.716 264.282 197.268C263.778 197.808 263.526 198.582 263.526 199.59C263.526 200.634 263.772 201.42 264.264 201.948C264.768 202.476 265.398 202.74 266.154 202.74ZM180.952 226L179.764 216.478L176.344 223.012L172.852 216.46L171.664 226H169.864L171.556 213.4H173.014L176.326 219.646L179.602 213.4H181.078L182.752 226H180.952ZM184.53 213.4H186.15V215.2H184.53V213.4ZM184.53 217.18H186.15V226H184.53V217.18ZM188.344 217.18H189.676L189.874 218.638C190.33 218.074 190.762 217.66 191.17 217.396C191.59 217.132 192.028 217 192.484 217C192.628 217 192.766 217.018 192.898 217.054L192.736 218.836C192.58 218.8 192.4 218.782 192.196 218.782C191.752 218.782 191.332 218.884 190.936 219.088C190.54 219.28 190.252 219.508 190.072 219.772V226H188.344V217.18ZM197.663 226.18C196.763 226.18 195.983 225.982 195.323 225.586C194.663 225.178 194.159 224.626 193.811 223.93C193.463 223.234 193.289 222.454 193.289 221.59C193.289 220.726 193.463 219.946 193.811 219.25C194.159 218.554 194.663 218.008 195.323 217.612C195.983 217.204 196.763 217 197.663 217C198.551 217 199.325 217.204 199.985 217.612C200.657 218.008 201.167 218.554 201.515 219.25C201.863 219.946 202.037 220.726 202.037 221.59C202.037 222.454 201.863 223.234 201.515 223.93C201.167 224.626 200.657 225.178 199.985 225.586C199.325 225.982 198.551 226.18 197.663 226.18ZM197.663 224.74C198.527 224.74 199.193 224.464 199.661 223.912C200.141 223.36 200.381 222.586 200.381 221.59C200.381 220.594 200.141 219.82 199.661 219.268C199.193 218.716 198.527 218.44 197.663 218.44C196.799 218.44 196.127 218.716 195.647 219.268C195.179 219.82 194.945 220.594 194.945 221.59C194.945 222.586 195.179 223.36 195.647 223.912C196.127 224.464 196.799 224.74 197.663 224.74ZM180.952 248L179.764 238.478L176.344 245.012L172.852 238.46L171.664 248H169.864L171.556 235.4H173.014L176.326 241.646L179.602 235.4H181.078L182.752 248H180.952ZM184.53 235.4H186.15V237.2H184.53V235.4ZM184.53 239.18H186.15V248H184.53V239.18ZM192.394 248.18C191.434 248.18 190.606 247.982 189.91 247.586C189.226 247.19 188.71 246.65 188.362 245.966C188.014 245.27 187.84 244.496 187.84 243.644C187.84 242.252 188.23 241.13 189.01 240.278C189.802 239.426 190.972 239 192.52 239C193.432 239 194.236 239.174 194.932 239.522L194.68 240.944C193.948 240.608 193.216 240.44 192.484 240.44C191.524 240.44 190.786 240.716 190.27 241.268C189.754 241.808 189.496 242.576 189.496 243.572C189.496 244.568 189.742 245.348 190.234 245.912C190.738 246.476 191.476 246.758 192.448 246.758C193.228 246.758 193.978 246.578 194.698 246.218L194.914 247.514C194.65 247.694 194.284 247.85 193.816 247.982C193.36 248.114 192.886 248.18 192.394 248.18ZM196.518 239.18H197.85L198.048 240.638C198.504 240.074 198.936 239.66 199.344 239.396C199.764 239.132 200.202 239 200.658 239C200.802 239 200.94 239.018 201.072 239.054L200.91 240.836C200.754 240.8 200.574 240.782 200.37 240.782C199.926 240.782 199.506 240.884 199.11 241.088C198.714 241.28 198.426 241.508 198.246 241.772V248H196.518V239.18ZM205.837 248.18C204.937 248.18 204.157 247.982 203.497 247.586C202.837 247.178 202.333 246.626 201.985 245.93C201.637 245.234 201.463 244.454 201.463 243.59C201.463 242.726 201.637 241.946 201.985 241.25C202.333 240.554 202.837 240.008 203.497 239.612C204.157 239.204 204.937 239 205.837 239C206.725 239 207.499 239.204 208.159 239.612C208.831 240.008 209.341 240.554 209.689 241.25C210.037 241.946 210.211 242.726 210.211 243.59C210.211 244.454 210.037 245.234 209.689 245.93C209.341 246.626 208.831 247.178 208.159 247.586C207.499 247.982 206.725 248.18 205.837 248.18ZM205.837 246.74C206.701 246.74 207.367 246.464 207.835 245.912C208.315 245.36 208.555 244.586 208.555 243.59C208.555 242.594 208.315 241.82 207.835 241.268C207.367 240.716 206.701 240.44 205.837 240.44C204.973 240.44 204.301 240.716 203.821 241.268C203.353 241.82 203.119 242.594 203.119 243.59C203.119 244.586 203.353 245.36 203.821 245.912C204.301 246.464 204.973 246.74 205.837 246.74ZM214.383 248.18C213.687 248.18 213.075 248.102 212.547 247.946C212.031 247.778 211.635 247.598 211.359 247.406L211.557 245.84C211.797 246.056 212.163 246.26 212.655 246.452C213.159 246.644 213.711 246.74 214.311 246.74C214.875 246.74 215.307 246.644 215.607 246.452C215.919 246.26 216.075 245.99 216.075 245.642C216.075 245.234 215.907 244.928 215.571 244.724C215.235 244.508 214.815 244.328 214.311 244.184C213.759 244.04 213.291 243.89 212.907 243.734C212.535 243.566 212.211 243.314 211.935 242.978C211.671 242.642 211.539 242.198 211.539 241.646C211.539 240.89 211.809 240.26 212.349 239.756C212.889 239.252 213.723 239 214.851 239C215.367 239 215.805 239.054 216.165 239.162C216.525 239.258 216.885 239.396 217.245 239.576L217.047 241.052C216.759 240.812 216.441 240.626 216.093 240.494C215.745 240.35 215.343 240.278 214.887 240.278C214.359 240.278 213.939 240.38 213.627 240.584C213.327 240.776 213.177 241.07 213.177 241.466C213.177 241.73 213.249 241.946 213.393 242.114C213.537 242.27 213.741 242.402 214.005 242.51C214.269 242.618 214.677 242.756 215.229 242.924C215.913 243.128 216.501 243.416 216.993 243.788C217.497 244.16 217.749 244.748 217.749 245.552C217.749 246.272 217.491 246.89 216.975 247.406C216.471 247.922 215.607 248.18 214.383 248.18ZM223.186 248.18C222.286 248.18 221.506 247.982 220.846 247.586C220.186 247.178 219.682 246.626 219.334 245.93C218.986 245.234 218.812 244.454 218.812 243.59C218.812 242.726 218.986 241.946 219.334 241.25C219.682 240.554 220.186 240.008 220.846 239.612C221.506 239.204 222.286 239 223.186 239C224.074 239 224.848 239.204 225.508 239.612C226.18 240.008 226.69 240.554 227.038 241.25C227.386 241.946 227.56 242.726 227.56 243.59C227.56 244.454 227.386 245.234 227.038 245.93C226.69 246.626 226.18 247.178 225.508 247.586C224.848 247.982 224.074 248.18 223.186 248.18ZM223.186 246.74C224.05 246.74 224.716 246.464 225.184 245.912C225.664 245.36 225.904 244.586 225.904 243.59C225.904 242.594 225.664 241.82 225.184 241.268C224.716 240.716 224.05 240.44 223.186 240.44C222.322 240.44 221.65 240.716 221.17 241.268C220.702 241.82 220.468 242.594 220.468 243.59C220.468 244.586 220.702 245.36 221.17 245.912C221.65 246.464 222.322 246.74 223.186 246.74ZM229.755 240.44H228.225L228.441 239.18H229.755V237.092C229.755 236.288 229.965 235.658 230.385 235.202C230.817 234.734 231.435 234.5 232.239 234.5C232.767 234.5 233.235 234.578 233.643 234.734L233.391 236.102C233.103 235.994 232.803 235.94 232.491 235.94C231.747 235.94 231.375 236.36 231.375 237.2V239.18H233.751V240.44H231.375V248H229.755V240.44ZM238.144 248.18C237.364 248.18 236.782 247.976 236.398 247.568C236.026 247.16 235.84 246.662 235.84 246.074V240.44H234.328L234.472 239.18H235.84V237.002L237.46 236.84V239.18H239.782V240.44H237.46V245.084C237.46 245.696 237.496 246.116 237.568 246.344C237.64 246.572 237.79 246.722 238.018 246.794C238.258 246.854 238.69 246.884 239.314 246.884H239.728L239.602 248.18H238.144ZM251.041 248.252C249.841 248.252 248.767 247.982 247.819 247.442C246.883 246.902 246.151 246.14 245.623 245.156C245.095 244.16 244.831 243.008 244.831 241.7C244.831 240.392 245.095 239.246 245.623 238.262C246.151 237.266 246.883 236.498 247.819 235.958C248.767 235.418 249.841 235.148 251.041 235.148C252.241 235.148 253.309 235.418 254.245 235.958C255.193 236.498 255.931 237.266 256.459 238.262C256.987 239.246 257.251 240.392 257.251 241.7C257.251 243.008 256.987 244.16 256.459 245.156C255.931 246.14 255.193 246.902 254.245 247.442C253.309 247.982 252.241 248.252 251.041 248.252ZM251.041 246.596C251.977 246.596 252.775 246.386 253.435 245.966C254.095 245.534 254.587 244.952 254.911 244.22C255.247 243.476 255.415 242.636 255.415 241.7C255.415 240.764 255.247 239.93 254.911 239.198C254.587 238.454 254.095 237.872 253.435 237.452C252.775 237.02 251.977 236.804 251.041 236.804C250.105 236.804 249.307 237.02 248.647 237.452C247.987 237.872 247.489 238.454 247.153 239.198C246.829 239.93 246.667 240.764 246.667 241.7C246.667 242.636 246.829 243.476 247.153 244.22C247.489 244.952 247.987 245.534 248.647 245.966C249.307 246.386 250.105 246.596 251.041 246.596ZM259.673 240.44H258.143L258.359 239.18H259.673V237.092C259.673 236.288 259.883 235.658 260.303 235.202C260.735 234.734 261.353 234.5 262.157 234.5C262.685 234.5 263.153 234.578 263.561 234.734L263.309 236.102C263.021 235.994 262.721 235.94 262.409 235.94C261.665 235.94 261.293 236.36 261.293 237.2V239.18H263.669V240.44H261.293V248H259.673V240.44ZM265.632 240.44H264.102L264.318 239.18H265.632V237.092C265.632 236.288 265.842 235.658 266.262 235.202C266.694 234.734 267.312 234.5 268.116 234.5C268.644 234.5 269.112 234.578 269.52 234.734L269.268 236.102C268.98 235.994 268.68 235.94 268.368 235.94C267.624 235.94 267.252 236.36 267.252 237.2V239.18H269.628V240.44H267.252V248H265.632V240.44ZM270.979 235.4H272.599V237.2H270.979V235.4ZM270.979 239.18H272.599V248H270.979V239.18ZM278.843 248.18C277.883 248.18 277.055 247.982 276.359 247.586C275.675 247.19 275.159 246.65 274.811 245.966C274.463 245.27 274.289 244.496 274.289 243.644C274.289 242.252 274.679 241.13 275.459 240.278C276.251 239.426 277.421 239 278.969 239C279.881 239 280.685 239.174 281.381 239.522L281.129 240.944C280.397 240.608 279.665 240.44 278.933 240.44C277.973 240.44 277.235 240.716 276.719 241.268C276.203 241.808 275.945 242.576 275.945 243.572C275.945 244.568 276.191 245.348 276.683 245.912C277.187 246.476 277.925 246.758 278.897 246.758C279.677 246.758 280.427 246.578 281.147 246.218L281.363 247.514C281.099 247.694 280.733 247.85 280.265 247.982C279.809 248.114 279.335 248.18 278.843 248.18ZM287.074 248.18C286.066 248.18 285.202 247.976 284.482 247.568C283.774 247.148 283.234 246.584 282.862 245.876C282.49 245.168 282.304 244.382 282.304 243.518C282.304 242.69 282.472 241.934 282.808 241.25C283.156 240.554 283.654 240.008 284.302 239.612C284.962 239.204 285.736 239 286.624 239C287.752 239 288.664 239.33 289.36 239.99C290.068 240.65 290.422 241.562 290.422 242.726C290.422 243.026 290.398 243.314 290.35 243.59H283.96C284.068 244.73 284.416 245.54 285.004 246.02C285.592 246.5 286.348 246.74 287.272 246.74C288.196 246.74 289.042 246.566 289.81 246.218L290.026 247.496C289.006 247.952 288.022 248.18 287.074 248.18ZM288.748 242.474C288.748 241.838 288.568 241.34 288.208 240.98C287.848 240.62 287.308 240.44 286.588 240.44C285.892 240.44 285.346 240.614 284.95 240.962C284.554 241.298 284.272 241.802 284.104 242.474H288.748ZM175.876 270.252C174.712 270.252 173.662 269.982 172.726 269.442C171.79 268.902 171.052 268.134 170.512 267.138C169.972 266.142 169.702 264.99 169.702 263.682C169.702 262.374 169.978 261.228 170.53 260.244C171.094 259.26 171.868 258.498 172.852 257.958C173.836 257.418 174.958 257.148 176.218 257.148C176.854 257.148 177.478 257.214 178.09 257.346C178.714 257.478 179.272 257.652 179.764 257.868L179.602 259.362C178.438 258.918 177.328 258.696 176.272 258.696C175.228 258.696 174.352 258.918 173.644 259.362C172.948 259.794 172.426 260.388 172.078 261.144C171.742 261.888 171.574 262.74 171.574 263.7C171.574 265.212 171.976 266.424 172.78 267.336C173.596 268.248 174.79 268.704 176.362 268.704C176.698 268.704 177.058 268.68 177.442 268.632C177.826 268.572 178.168 268.482 178.468 268.362V265.23H176.488V263.682H180.178V269.298C179.65 269.586 179.014 269.82 178.27 270C177.538 270.168 176.74 270.252 175.876 270.252ZM182.086 257.4H183.706V259.2H182.086V257.4ZM182.086 261.18H183.706V270H182.086V261.18ZM188.943 270.18C188.163 270.18 187.581 269.976 187.197 269.568C186.825 269.16 186.639 268.662 186.639 268.074V262.44H185.127L185.271 261.18H186.639V259.002L188.259 258.84V261.18H190.581V262.44H188.259V267.084C188.259 267.696 188.295 268.116 188.367 268.344C188.439 268.572 188.589 268.722 188.817 268.794C189.057 268.854 189.489 268.884 190.113 268.884H190.527L190.401 270.18H188.943ZM196.177 261C197.293 261 198.145 261.366 198.733 262.098C199.321 262.83 199.615 263.826 199.615 265.086V270H197.995V265.284C197.995 264.312 197.815 263.598 197.455 263.142C197.107 262.674 196.561 262.44 195.817 262.44C195.361 262.44 194.941 262.548 194.557 262.764C194.173 262.968 193.849 263.262 193.585 263.646V270H191.947V256.5H193.585V262.026C193.933 261.69 194.311 261.438 194.719 261.27C195.139 261.09 195.625 261 196.177 261ZM208.957 261.18V270H207.517L207.337 269.028C207.049 269.424 206.707 269.718 206.311 269.91C205.927 270.09 205.453 270.18 204.889 270.18C203.833 270.18 203.023 269.862 202.459 269.226C201.907 268.578 201.631 267.606 201.631 266.31V261.18H203.251V265.86C203.251 266.82 203.413 267.54 203.737 268.02C204.073 268.5 204.595 268.74 205.303 268.74C205.723 268.74 206.113 268.656 206.473 268.488C206.845 268.32 207.133 268.074 207.337 267.75V261.18H208.957ZM215.499 261C216.291 261 216.987 261.21 217.587 261.63C218.199 262.05 218.667 262.614 218.991 263.322C219.315 264.018 219.477 264.774 219.477 265.59C219.477 266.43 219.297 267.204 218.937 267.912C218.589 268.608 218.109 269.16 217.497 269.568C216.897 269.976 216.231 270.18 215.499 270.18C214.959 270.18 214.437 270.072 213.933 269.856C213.429 269.628 213.039 269.316 212.763 268.92L212.583 270H211.143V256.5H212.763V262.206C213.087 261.834 213.489 261.54 213.969 261.324C214.461 261.108 214.971 261 215.499 261ZM215.301 268.74C216.057 268.74 216.663 268.44 217.119 267.84C217.587 267.228 217.821 266.478 217.821 265.59C217.821 264.678 217.587 263.928 217.119 263.34C216.663 262.74 216.057 262.44 215.301 262.44C214.557 262.44 213.933 262.716 213.429 263.268C212.925 263.808 212.673 264.582 212.673 265.59C212.673 266.634 212.919 267.42 213.411 267.948C213.915 268.476 214.545 268.74 215.301 268.74ZM170.44 279.4H174.598C175.942 279.4 176.986 279.73 177.73 280.39C178.486 281.038 178.864 282.07 178.864 283.486C178.864 284.878 178.486 285.91 177.73 286.582C176.974 287.254 175.93 287.59 174.598 287.59H172.24V292H170.44V279.4ZM174.346 286.06C175.27 286.06 175.96 285.85 176.416 285.43C176.872 285.01 177.1 284.368 177.1 283.504C177.1 282.628 176.878 281.98 176.434 281.56C176.002 281.14 175.306 280.93 174.346 280.93H172.24V286.06H174.346ZM184.022 292.18C183.122 292.18 182.342 291.982 181.682 291.586C181.022 291.178 180.518 290.626 180.17 289.93C179.822 289.234 179.648 288.454 179.648 287.59C179.648 286.726 179.822 285.946 180.17 285.25C180.518 284.554 181.022 284.008 181.682 283.612C182.342 283.204 183.122 283 184.022 283C184.91 283 185.684 283.204 186.344 283.612C187.016 284.008 187.526 284.554 187.874 285.25C188.222 285.946 188.396 286.726 188.396 287.59C188.396 288.454 188.222 289.234 187.874 289.93C187.526 290.626 187.016 291.178 186.344 291.586C185.684 291.982 184.91 292.18 184.022 292.18ZM184.022 290.74C184.886 290.74 185.552 290.464 186.02 289.912C186.5 289.36 186.74 288.586 186.74 287.59C186.74 286.594 186.5 285.82 186.02 285.268C185.552 284.716 184.886 284.44 184.022 284.44C183.158 284.44 182.486 284.716 182.006 285.268C181.538 285.82 181.304 286.594 181.304 287.59C181.304 288.586 181.538 289.36 182.006 289.912C182.486 290.464 183.158 290.74 184.022 290.74ZM192.569 292.18C191.873 292.18 191.261 292.102 190.733 291.946C190.217 291.778 189.821 291.598 189.545 291.406L189.743 289.84C189.983 290.056 190.349 290.26 190.841 290.452C191.345 290.644 191.897 290.74 192.497 290.74C193.061 290.74 193.493 290.644 193.793 290.452C194.105 290.26 194.261 289.99 194.261 289.642C194.261 289.234 194.093 288.928 193.757 288.724C193.421 288.508 193.001 288.328 192.497 288.184C191.945 288.04 191.477 287.89 191.093 287.734C190.721 287.566 190.397 287.314 190.121 286.978C189.857 286.642 189.725 286.198 189.725 285.646C189.725 284.89 189.995 284.26 190.535 283.756C191.075 283.252 191.909 283 193.037 283C193.553 283 193.991 283.054 194.351 283.162C194.711 283.258 195.071 283.396 195.431 283.576L195.233 285.052C194.945 284.812 194.627 284.626 194.279 284.494C193.931 284.35 193.529 284.278 193.073 284.278C192.545 284.278 192.125 284.38 191.813 284.584C191.513 284.776 191.363 285.07 191.363 285.466C191.363 285.73 191.435 285.946 191.579 286.114C191.723 286.27 191.927 286.402 192.191 286.51C192.455 286.618 192.863 286.756 193.415 286.924C194.099 287.128 194.687 287.416 195.179 287.788C195.683 288.16 195.935 288.748 195.935 289.552C195.935 290.272 195.677 290.89 195.161 291.406C194.657 291.922 193.793 292.18 192.569 292.18ZM200.562 292.18C199.782 292.18 199.2 291.976 198.816 291.568C198.444 291.16 198.258 290.662 198.258 290.074V284.44H196.746L196.89 283.18H198.258V281.002L199.878 280.84V283.18H202.2V284.44H199.878V289.084C199.878 289.696 199.914 290.116 199.986 290.344C200.058 290.572 200.208 290.722 200.436 290.794C200.676 290.854 201.108 290.884 201.732 290.884H202.146L202.02 292.18H200.562ZM203.512 285.628H209.092V287.176H203.512V285.628ZM211.213 279.4H212.833V281.2H211.213V279.4ZM211.213 283.18H212.833V292H211.213V283.18ZM218.07 292.18C217.29 292.18 216.708 291.976 216.324 291.568C215.952 291.16 215.766 290.662 215.766 290.074V284.44H214.254L214.398 283.18H215.766V281.002L217.386 280.84V283.18H219.708V284.44H217.386V289.084C217.386 289.696 217.422 290.116 217.494 290.344C217.566 290.572 217.716 290.722 217.944 290.794C218.184 290.854 218.616 290.884 219.24 290.884H219.654L219.528 292.18H218.07ZM223.594 292.18C222.898 292.18 222.286 292.102 221.758 291.946C221.242 291.778 220.846 291.598 220.57 291.406L220.768 289.84C221.008 290.056 221.374 290.26 221.866 290.452C222.37 290.644 222.922 290.74 223.522 290.74C224.086 290.74 224.518 290.644 224.818 290.452C225.13 290.26 225.286 289.99 225.286 289.642C225.286 289.234 225.118 288.928 224.782 288.724C224.446 288.508 224.026 288.328 223.522 288.184C222.97 288.04 222.502 287.89 222.118 287.734C221.746 287.566 221.422 287.314 221.146 286.978C220.882 286.642 220.75 286.198 220.75 285.646C220.75 284.89 221.02 284.26 221.56 283.756C222.1 283.252 222.934 283 224.062 283C224.578 283 225.016 283.054 225.376 283.162C225.736 283.258 226.096 283.396 226.456 283.576L226.258 285.052C225.97 284.812 225.652 284.626 225.304 284.494C224.956 284.35 224.554 284.278 224.098 284.278C223.57 284.278 223.15 284.38 222.838 284.584C222.538 284.776 222.388 285.07 222.388 285.466C222.388 285.73 222.46 285.946 222.604 286.114C222.748 286.27 222.952 286.402 223.216 286.51C223.48 286.618 223.888 286.756 224.44 286.924C225.124 287.128 225.712 287.416 226.204 287.788C226.708 288.16 226.96 288.748 226.96 289.552C226.96 290.272 226.702 290.89 226.186 291.406C225.682 291.922 224.818 292.18 223.594 292.18ZM228.869 288.436L228.509 279.4H230.741L230.381 288.436V288.904H228.869V288.436ZM228.653 290.092H230.597V292H228.653V290.092Z" fill="#121F41"/>
<path d="M221.942 5.948H218.27V4.4H227.324V5.948H223.652V17H221.942V5.948ZM231.124 17.18C230.224 17.18 229.444 16.982 228.784 16.586C228.124 16.178 227.62 15.626 227.272 14.93C226.924 14.234 226.75 13.454 226.75 12.59C226.75 11.726 226.924 10.946 227.272 10.25C227.62 9.554 228.124 9.008 228.784 8.612C229.444 8.204 230.224 8 231.124 8C232.012 8 232.786 8.204 233.446 8.612C234.118 9.008 234.628 9.554 234.976 10.25C235.324 10.946 235.498 11.726 235.498 12.59C235.498 13.454 235.324 14.234 234.976 14.93C234.628 15.626 234.118 16.178 233.446 16.586C232.786 16.982 232.012 17.18 231.124 17.18ZM231.124 15.74C231.988 15.74 232.654 15.464 233.122 14.912C233.602 14.36 233.842 13.586 233.842 12.59C233.842 11.594 233.602 10.82 233.122 10.268C232.654 9.716 231.988 9.44 231.124 9.44C230.26 9.44 229.588 9.716 229.108 10.268C228.64 10.82 228.406 11.594 228.406 12.59C228.406 13.586 228.64 14.36 229.108 14.912C229.588 15.464 230.26 15.74 231.124 15.74ZM241.02 17.18C240.12 17.18 239.34 16.982 238.68 16.586C238.02 16.178 237.516 15.626 237.168 14.93C236.82 14.234 236.646 13.454 236.646 12.59C236.646 11.726 236.82 10.946 237.168 10.25C237.516 9.554 238.02 9.008 238.68 8.612C239.34 8.204 240.12 8 241.02 8C241.908 8 242.682 8.204 243.342 8.612C244.014 9.008 244.524 9.554 244.872 10.25C245.22 10.946 245.394 11.726 245.394 12.59C245.394 13.454 245.22 14.234 244.872 14.93C244.524 15.626 244.014 16.178 243.342 16.586C242.682 16.982 241.908 17.18 241.02 17.18ZM241.02 15.74C241.884 15.74 242.55 15.464 243.018 14.912C243.498 14.36 243.738 13.586 243.738 12.59C243.738 11.594 243.498 10.82 243.018 10.268C242.55 9.716 241.884 9.44 241.02 9.44C240.156 9.44 239.484 9.716 239.004 10.268C238.536 10.82 238.302 11.594 238.302 12.59C238.302 13.586 238.536 14.36 239.004 14.912C239.484 15.464 240.156 15.74 241.02 15.74ZM249.333 17.18C248.541 17.18 247.959 16.976 247.587 16.568C247.227 16.16 247.047 15.656 247.047 15.056V3.5H248.667V14.12C248.667 14.648 248.697 15.032 248.757 15.272C248.829 15.512 248.961 15.674 249.153 15.758C249.345 15.842 249.657 15.884 250.089 15.884L249.855 17.18H249.333ZM253.821 17.18C253.125 17.18 252.513 17.102 251.985 16.946C251.469 16.778 251.073 16.598 250.797 16.406L250.995 14.84C251.235 15.056 251.601 15.26 252.093 15.452C252.597 15.644 253.149 15.74 253.749 15.74C254.313 15.74 254.745 15.644 255.045 15.452C255.357 15.26 255.513 14.99 255.513 14.642C255.513 14.234 255.345 13.928 255.009 13.724C254.673 13.508 254.253 13.328 253.749 13.184C253.197 13.04 252.729 12.89 252.345 12.734C251.973 12.566 251.649 12.314 251.373 11.978C251.109 11.642 250.977 11.198 250.977 10.646C250.977 9.89 251.247 9.26 251.787 8.756C252.327 8.252 253.161 8 254.289 8C254.805 8 255.243 8.054 255.603 8.162C255.963 8.258 256.323 8.396 256.683 8.576L256.485 10.052C256.197 9.812 255.879 9.626 255.531 9.494C255.183 9.35 254.781 9.278 254.325 9.278C253.797 9.278 253.377 9.38 253.065 9.584C252.765 9.776 252.615 10.07 252.615 10.466C252.615 10.73 252.687 10.946 252.831 11.114C252.975 11.27 253.179 11.402 253.443 11.51C253.707 11.618 254.115 11.756 254.667 11.924C255.351 12.128 255.939 12.416 256.431 12.788C256.935 13.16 257.187 13.748 257.187 14.552C257.187 15.272 256.929 15.89 256.413 16.406C255.909 16.922 255.045 17.18 253.821 17.18Z" fill="#121F41"/>
<path d="M50.7071 174.707C51.0976 174.317 51.0976 173.683 50.7071 173.293L44.3431 166.929C43.9526 166.538 43.3195 166.538 42.9289 166.929C42.5384 167.319 42.5384 167.953 42.9289 168.343L48.5858 174L42.9289 179.657C42.5384 180.047 42.5384 180.681 42.9289 181.071C43.3195 181.462 43.9526 181.462 44.3431 181.071L50.7071 174.707ZM0 175H50V173H0V175Z" fill="black"/>
<path d="M147 56C138.694 68.0144 139.586 131.616 147 156L138 177.5L147 194.5C139.429 220.391 141.919 279.356 147 292" stroke="black" stroke-width="2"/>
</svg>
