<svg width="170" height="297" viewBox="0 0 170 297" fill="none" xmlns="http://www.w3.org/2000/svg">
<path d="M40.956 68.598H36.132L34.926 72H33.126L37.644 59.4H39.444L43.962 72H42.162L40.956 68.598ZM40.416 67.05L38.544 61.794L36.672 67.05H40.416ZM52.8084 58.5V72H51.3684L51.1884 70.92C50.8884 71.328 50.4984 71.64 50.0184 71.856C49.5384 72.072 49.0284 72.18 48.4884 72.18C47.7444 72.18 47.0664 71.976 46.4544 71.568C45.8424 71.16 45.3564 70.608 44.9964 69.912C44.6484 69.216 44.4744 68.448 44.4744 67.608C44.4744 66.792 44.6364 66.03 44.9604 65.322C45.2964 64.614 45.7704 64.05 46.3824 63.63C46.9944 63.21 47.6964 63 48.4884 63C49.0164 63 49.5144 63.096 49.9824 63.288C50.4504 63.48 50.8524 63.774 51.1884 64.17V58.5H52.8084ZM48.7764 70.74C49.2084 70.74 49.6224 70.632 50.0184 70.416C50.4144 70.188 50.7384 69.84 50.9904 69.372C51.2424 68.904 51.3684 68.316 51.3684 67.608C51.3684 66.948 51.2424 66.378 50.9904 65.898C50.7384 65.418 50.4084 65.058 50.0004 64.818C49.6044 64.566 49.1964 64.44 48.7764 64.44C47.9604 64.44 47.3124 64.74 46.8324 65.34C46.3644 65.928 46.1304 66.684 46.1304 67.608C46.1304 68.496 46.3704 69.24 46.8504 69.84C47.3304 70.44 47.9724 70.74 48.7764 70.74ZM58.8328 72.18C57.9328 72.18 57.1528 71.982 56.4928 71.586C55.8328 71.178 55.3288 70.626 54.9808 69.93C54.6328 69.234 54.4588 68.454 54.4588 67.59C54.4588 66.726 54.6328 65.946 54.9808 65.25C55.3288 64.554 55.8328 64.008 56.4928 63.612C57.1528 63.204 57.9328 63 58.8328 63C59.7208 63 60.4948 63.204 61.1548 63.612C61.8268 64.008 62.3368 64.554 62.6848 65.25C63.0328 65.946 63.2068 66.726 63.2068 67.59C63.2068 68.454 63.0328 69.234 62.6848 69.93C62.3368 70.626 61.8268 71.178 61.1548 71.586C60.4948 71.982 59.7208 72.18 58.8328 72.18ZM58.8328 70.74C59.6968 70.74 60.3628 70.464 60.8308 69.912C61.3108 69.36 61.5508 68.586 61.5508 67.59C61.5508 66.594 61.3108 65.82 60.8308 65.268C60.3628 64.716 59.6968 64.44 58.8328 64.44C57.9688 64.44 57.2968 64.716 56.8168 65.268C56.3488 65.82 56.1148 66.594 56.1148 67.59C56.1148 68.586 56.3488 69.36 56.8168 69.912C57.2968 70.464 57.9688 70.74 58.8328 70.74ZM69.2153 63C70.0073 63 70.7033 63.21 71.3033 63.63C71.9153 64.05 72.3833 64.614 72.7073 65.322C73.0313 66.018 73.1933 66.774 73.1933 67.59C73.1933 68.43 73.0133 69.204 72.6533 69.912C72.3053 70.608 71.8253 71.16 71.2133 71.568C70.6133 71.976 69.9473 72.18 69.2153 72.18C68.6753 72.18 68.1533 72.072 67.6493 71.856C67.1453 71.628 66.7553 71.316 66.4793 70.92L66.2993 72H64.8593V58.5H66.4793V64.206C66.8033 63.834 67.2053 63.54 67.6853 63.324C68.1773 63.108 68.6873 63 69.2153 63ZM69.0173 70.74C69.7733 70.74 70.3793 70.44 70.8353 69.84C71.3033 69.228 71.5373 68.478 71.5373 67.59C71.5373 66.678 71.3033 65.928 70.8353 65.34C70.3793 64.74 69.7733 64.44 69.0173 64.44C68.2733 64.44 67.6493 64.716 67.1453 65.268C66.6413 65.808 66.3893 66.582 66.3893 67.59C66.3893 68.634 66.6353 69.42 67.1273 69.948C67.6313 70.476 68.2613 70.74 69.0173 70.74ZM79.0917 72.18C78.0837 72.18 77.2197 71.976 76.4997 71.568C75.7917 71.148 75.2517 70.584 74.8797 69.876C74.5077 69.168 74.3217 68.382 74.3217 67.518C74.3217 66.69 74.4897 65.934 74.8257 65.25C75.1737 64.554 75.6717 64.008 76.3197 63.612C76.9797 63.204 77.7537 63 78.6417 63C79.7697 63 80.6817 63.33 81.3777 63.99C82.0857 64.65 82.4397 65.562 82.4397 66.726C82.4397 67.026 82.4157 67.314 82.3677 67.59H75.9777C76.0857 68.73 76.4337 69.54 77.0217 70.02C77.6097 70.5 78.3657 70.74 79.2897 70.74C80.2137 70.74 81.0597 70.566 81.8277 70.218L82.0437 71.496C81.0237 71.952 80.0397 72.18 79.0917 72.18ZM80.7657 66.474C80.7657 65.838 80.5857 65.34 80.2257 64.98C79.8657 64.62 79.3257 64.44 78.6057 64.44C77.9097 64.44 77.3637 64.614 76.9677 64.962C76.5717 65.298 76.2897 65.802 76.1217 66.474H80.7657ZM88.4576 59.4H92.6156C93.9596 59.4 95.0036 59.73 95.7476 60.39C96.5036 61.038 96.8816 62.07 96.8816 63.486C96.8816 64.878 96.5036 65.91 95.7476 66.582C94.9916 67.254 93.9476 67.59 92.6156 67.59H90.2576V72H88.4576V59.4ZM92.3636 66.06C93.2876 66.06 93.9776 65.85 94.4336 65.43C94.8896 65.01 95.1176 64.368 95.1176 63.504C95.1176 62.628 94.8956 61.98 94.4516 61.56C94.0196 61.14 93.3236 60.93 92.3636 60.93H90.2576V66.06H92.3636ZM102.54 63C103.656 63 104.508 63.366 105.096 64.098C105.684 64.83 105.978 65.826 105.978 67.086V72H104.358V67.284C104.358 66.312 104.178 65.598 103.818 65.142C103.47 64.674 102.924 64.44 102.18 64.44C101.724 64.44 101.304 64.548 100.92 64.764C100.536 64.968 100.212 65.262 99.9485 65.646V72H98.3105V58.5H99.9485V64.026C100.296 63.69 100.674 63.438 101.082 63.27C101.502 63.09 101.988 63 102.54 63ZM111.936 72.18C111.036 72.18 110.256 71.982 109.596 71.586C108.936 71.178 108.432 70.626 108.084 69.93C107.736 69.234 107.562 68.454 107.562 67.59C107.562 66.726 107.736 65.946 108.084 65.25C108.432 64.554 108.936 64.008 109.596 63.612C110.256 63.204 111.036 63 111.936 63C112.824 63 113.598 63.204 114.258 63.612C114.93 64.008 115.44 64.554 115.788 65.25C116.136 65.946 116.31 66.726 116.31 67.59C116.31 68.454 116.136 69.234 115.788 69.93C115.44 70.626 114.93 71.178 114.258 71.586C113.598 71.982 112.824 72.18 111.936 72.18ZM111.936 70.74C112.8 70.74 113.466 70.464 113.934 69.912C114.414 69.36 114.654 68.586 114.654 67.59C114.654 66.594 114.414 65.82 113.934 65.268C113.466 64.716 112.8 64.44 111.936 64.44C111.072 64.44 110.4 64.716 109.92 65.268C109.452 65.82 109.218 66.594 109.218 67.59C109.218 68.586 109.452 69.36 109.92 69.912C110.4 70.464 111.072 70.74 111.936 70.74ZM120.9 72.18C120.12 72.18 119.538 71.976 119.154 71.568C118.782 71.16 118.596 70.662 118.596 70.074V64.44H117.084L117.228 63.18H118.596V61.002L120.216 60.84V63.18H122.538V64.44H120.216V69.084C120.216 69.696 120.252 70.116 120.324 70.344C120.396 70.572 120.546 70.722 120.774 70.794C121.014 70.854 121.446 70.884 122.07 70.884H122.484L122.358 72.18H120.9ZM127.704 72.18C126.804 72.18 126.024 71.982 125.364 71.586C124.704 71.178 124.2 70.626 123.852 69.93C123.504 69.234 123.33 68.454 123.33 67.59C123.33 66.726 123.504 65.946 123.852 65.25C124.2 64.554 124.704 64.008 125.364 63.612C126.024 63.204 126.804 63 127.704 63C128.592 63 129.366 63.204 130.026 63.612C130.698 64.008 131.208 64.554 131.556 65.25C131.904 65.946 132.078 66.726 132.078 67.59C132.078 68.454 131.904 69.234 131.556 69.93C131.208 70.626 130.698 71.178 130.026 71.586C129.366 71.982 128.592 72.18 127.704 72.18ZM127.704 70.74C128.568 70.74 129.234 70.464 129.702 69.912C130.182 69.36 130.422 68.586 130.422 67.59C130.422 66.594 130.182 65.82 129.702 65.268C129.234 64.716 128.568 64.44 127.704 64.44C126.84 64.44 126.168 64.716 125.688 65.268C125.22 65.82 124.986 66.594 124.986 67.59C124.986 68.586 125.22 69.36 125.688 69.912C126.168 70.464 126.84 70.74 127.704 70.74ZM136.25 72.18C135.554 72.18 134.942 72.102 134.414 71.946C133.898 71.778 133.502 71.598 133.226 71.406L133.424 69.84C133.664 70.056 134.03 70.26 134.522 70.452C135.026 70.644 135.578 70.74 136.178 70.74C136.742 70.74 137.174 70.644 137.474 70.452C137.786 70.26 137.942 69.99 137.942 69.642C137.942 69.234 137.774 68.928 137.438 68.724C137.102 68.508 136.682 68.328 136.178 68.184C135.626 68.04 135.158 67.89 134.774 67.734C134.402 67.566 134.078 67.314 133.802 66.978C133.538 66.642 133.406 66.198 133.406 65.646C133.406 64.89 133.676 64.26 134.216 63.756C134.756 63.252 135.59 63 136.718 63C137.234 63 137.672 63.054 138.032 63.162C138.392 63.258 138.752 63.396 139.112 63.576L138.914 65.052C138.626 64.812 138.308 64.626 137.96 64.494C137.612 64.35 137.21 64.278 136.754 64.278C136.226 64.278 135.806 64.38 135.494 64.584C135.194 64.776 135.044 65.07 135.044 65.466C135.044 65.73 135.116 65.946 135.26 66.114C135.404 66.27 135.608 66.402 135.872 66.51C136.136 66.618 136.544 66.756 137.096 66.924C137.78 67.128 138.368 67.416 138.86 67.788C139.364 68.16 139.616 68.748 139.616 69.552C139.616 70.272 139.358 70.89 138.842 71.406C138.338 71.922 137.474 72.18 136.25 72.18ZM145.414 63C146.53 63 147.382 63.366 147.97 64.098C148.558 64.83 148.852 65.826 148.852 67.086V72H147.232V67.284C147.232 66.312 147.052 65.598 146.692 65.142C146.344 64.674 145.798 64.44 145.054 64.44C144.598 64.44 144.178 64.548 143.794 64.764C143.41 64.968 143.086 65.262 142.822 65.646V72H141.184V58.5H142.822V64.026C143.17 63.69 143.548 63.438 143.956 63.27C144.376 63.09 144.862 63 145.414 63ZM154.809 72.18C153.909 72.18 153.129 71.982 152.469 71.586C151.809 71.178 151.305 70.626 150.957 69.93C150.609 69.234 150.435 68.454 150.435 67.59C150.435 66.726 150.609 65.946 150.957 65.25C151.305 64.554 151.809 64.008 152.469 63.612C153.129 63.204 153.909 63 154.809 63C155.697 63 156.471 63.204 157.131 63.612C157.803 64.008 158.313 64.554 158.661 65.25C159.009 65.946 159.183 66.726 159.183 67.59C159.183 68.454 159.009 69.234 158.661 69.93C158.313 70.626 157.803 71.178 157.131 71.586C156.471 71.982 155.697 72.18 154.809 72.18ZM154.809 70.74C155.673 70.74 156.339 70.464 156.807 69.912C157.287 69.36 157.527 68.586 157.527 67.59C157.527 66.594 157.287 65.82 156.807 65.268C156.339 64.716 155.673 64.44 154.809 64.44C153.945 64.44 153.273 64.716 152.793 65.268C152.325 65.82 152.091 66.594 152.091 67.59C152.091 68.586 152.325 69.36 152.793 69.912C153.273 70.464 153.945 70.74 154.809 70.74ZM165.336 63C166.116 63 166.794 63.204 167.37 63.612C167.958 64.008 168.408 64.554 168.72 65.25C169.032 65.946 169.188 66.726 169.188 67.59C169.188 68.466 169.038 69.252 168.738 69.948C168.45 70.632 168.018 71.178 167.442 71.586C166.866 71.982 166.164 72.18 165.336 72.18C164.724 72.18 164.166 72.072 163.662 71.856C163.158 71.64 162.762 71.328 162.474 70.92V76.356H160.854V63.18H162.114L162.294 64.404C163.038 63.468 164.052 63 165.336 63ZM165.03 70.74C165.81 70.74 166.422 70.464 166.866 69.912C167.31 69.348 167.532 68.574 167.532 67.59C167.532 66.606 167.31 65.838 166.866 65.286C166.422 64.722 165.81 64.44 165.03 64.44C164.262 64.44 163.626 64.71 163.122 65.25C162.63 65.79 162.384 66.57 162.384 67.59C162.384 68.646 162.63 69.438 163.122 69.966C163.614 70.482 164.25 70.74 165.03 70.74ZM40.956 90.598H36.132L34.926 94H33.126L37.644 81.4H39.444L43.962 94H42.162L40.956 90.598ZM40.416 89.05L38.544 83.794L36.672 89.05H40.416ZM52.8084 80.5V94H51.3684L51.1884 92.92C50.8884 93.328 50.4984 93.64 50.0184 93.856C49.5384 94.072 49.0284 94.18 48.4884 94.18C47.7444 94.18 47.0664 93.976 46.4544 93.568C45.8424 93.16 45.3564 92.608 44.9964 91.912C44.6484 91.216 44.4744 90.448 44.4744 89.608C44.4744 88.792 44.6364 88.03 44.9604 87.322C45.2964 86.614 45.7704 86.05 46.3824 85.63C46.9944 85.21 47.6964 85 48.4884 85C49.0164 85 49.5144 85.096 49.9824 85.288C50.4504 85.48 50.8524 85.774 51.1884 86.17V80.5H52.8084ZM48.7764 92.74C49.2084 92.74 49.6224 92.632 50.0184 92.416C50.4144 92.188 50.7384 91.84 50.9904 91.372C51.2424 90.904 51.3684 90.316 51.3684 89.608C51.3684 88.948 51.2424 88.378 50.9904 87.898C50.7384 87.418 50.4084 87.058 50.0004 86.818C49.6044 86.566 49.1964 86.44 48.7764 86.44C47.9604 86.44 47.3124 86.74 46.8324 87.34C46.3644 87.928 46.1304 88.684 46.1304 89.608C46.1304 90.496 46.3704 91.24 46.8504 91.84C47.3304 92.44 47.9724 92.74 48.7764 92.74ZM58.8328 94.18C57.9328 94.18 57.1528 93.982 56.4928 93.586C55.8328 93.178 55.3288 92.626 54.9808 91.93C54.6328 91.234 54.4588 90.454 54.4588 89.59C54.4588 88.726 54.6328 87.946 54.9808 87.25C55.3288 86.554 55.8328 86.008 56.4928 85.612C57.1528 85.204 57.9328 85 58.8328 85C59.7208 85 60.4948 85.204 61.1548 85.612C61.8268 86.008 62.3368 86.554 62.6848 87.25C63.0328 87.946 63.2068 88.726 63.2068 89.59C63.2068 90.454 63.0328 91.234 62.6848 91.93C62.3368 92.626 61.8268 93.178 61.1548 93.586C60.4948 93.982 59.7208 94.18 58.8328 94.18ZM58.8328 92.74C59.6968 92.74 60.3628 92.464 60.8308 91.912C61.3108 91.36 61.5508 90.586 61.5508 89.59C61.5508 88.594 61.3108 87.82 60.8308 87.268C60.3628 86.716 59.6968 86.44 58.8328 86.44C57.9688 86.44 57.2968 86.716 56.8168 87.268C56.3488 87.82 56.1148 88.594 56.1148 89.59C56.1148 90.586 56.3488 91.36 56.8168 91.912C57.2968 92.464 57.9688 92.74 58.8328 92.74ZM69.2153 85C70.0073 85 70.7033 85.21 71.3033 85.63C71.9153 86.05 72.3833 86.614 72.7073 87.322C73.0313 88.018 73.1933 88.774 73.1933 89.59C73.1933 90.43 73.0133 91.204 72.6533 91.912C72.3053 92.608 71.8253 93.16 71.2133 93.568C70.6133 93.976 69.9473 94.18 69.2153 94.18C68.6753 94.18 68.1533 94.072 67.6493 93.856C67.1453 93.628 66.7553 93.316 66.4793 92.92L66.2993 94H64.8593V80.5H66.4793V86.206C66.8033 85.834 67.2053 85.54 67.6853 85.324C68.1773 85.108 68.6873 85 69.2153 85ZM69.0173 92.74C69.7733 92.74 70.3793 92.44 70.8353 91.84C71.3033 91.228 71.5373 90.478 71.5373 89.59C71.5373 88.678 71.3033 87.928 70.8353 87.34C70.3793 86.74 69.7733 86.44 69.0173 86.44C68.2733 86.44 67.6493 86.716 67.1453 87.268C66.6413 87.808 66.3893 88.582 66.3893 89.59C66.3893 90.634 66.6353 91.42 67.1273 91.948C67.6313 92.476 68.2613 92.74 69.0173 92.74ZM79.0917 94.18C78.0837 94.18 77.2197 93.976 76.4997 93.568C75.7917 93.148 75.2517 92.584 74.8797 91.876C74.5077 91.168 74.3217 90.382 74.3217 89.518C74.3217 88.69 74.4897 87.934 74.8257 87.25C75.1737 86.554 75.6717 86.008 76.3197 85.612C76.9797 85.204 77.7537 85 78.6417 85C79.7697 85 80.6817 85.33 81.3777 85.99C82.0857 86.65 82.4397 87.562 82.4397 88.726C82.4397 89.026 82.4157 89.314 82.3677 89.59H75.9777C76.0857 90.73 76.4337 91.54 77.0217 92.02C77.6097 92.5 78.3657 92.74 79.2897 92.74C80.2137 92.74 81.0597 92.566 81.8277 92.218L82.0437 93.496C81.0237 93.952 80.0397 94.18 79.0917 94.18ZM80.7657 88.474C80.7657 87.838 80.5857 87.34 80.2257 86.98C79.8657 86.62 79.3257 86.44 78.6057 86.44C77.9097 86.44 77.3637 86.614 76.9677 86.962C76.5717 87.298 76.2897 87.802 76.1217 88.474H80.7657ZM88.4576 81.4H90.1676V94H88.4576V81.4ZM94.7957 94.18C94.0037 94.18 93.4217 93.976 93.0497 93.568C92.6897 93.16 92.5097 92.656 92.5097 92.056V80.5H94.1297V91.12C94.1297 91.648 94.1597 92.032 94.2197 92.272C94.2917 92.512 94.4237 92.674 94.6157 92.758C94.8077 92.842 95.1197 92.884 95.5517 92.884L95.3177 94.18H94.7957ZM99.0496 94.18C98.2576 94.18 97.6756 93.976 97.3036 93.568C96.9436 93.16 96.7636 92.656 96.7636 92.056V80.5H98.3836V91.12C98.3836 91.648 98.4136 92.032 98.4736 92.272C98.5456 92.512 98.6776 92.674 98.8696 92.758C99.0616 92.842 99.3736 92.884 99.8056 92.884L99.5716 94.18H99.0496ZM108.272 85.18V94H106.832L106.652 93.028C106.364 93.424 106.022 93.718 105.626 93.91C105.242 94.09 104.768 94.18 104.204 94.18C103.148 94.18 102.338 93.862 101.774 93.226C101.222 92.578 100.946 91.606 100.946 90.31V85.18H102.566V89.86C102.566 90.82 102.728 91.54 103.052 92.02C103.388 92.5 103.91 92.74 104.618 92.74C105.038 92.74 105.428 92.656 105.788 92.488C106.16 92.32 106.448 92.074 106.652 91.75V85.18H108.272ZM112.977 94.18C112.281 94.18 111.669 94.102 111.141 93.946C110.625 93.778 110.229 93.598 109.953 93.406L110.151 91.84C110.391 92.056 110.757 92.26 111.249 92.452C111.753 92.644 112.305 92.74 112.905 92.74C113.469 92.74 113.901 92.644 114.201 92.452C114.513 92.26 114.669 91.99 114.669 91.642C114.669 91.234 114.501 90.928 114.165 90.724C113.829 90.508 113.409 90.328 112.905 90.184C112.353 90.04 111.885 89.89 111.501 89.734C111.129 89.566 110.805 89.314 110.529 88.978C110.265 88.642 110.133 88.198 110.133 87.646C110.133 86.89 110.403 86.26 110.943 85.756C111.483 85.252 112.317 85 113.445 85C113.961 85 114.399 85.054 114.759 85.162C115.119 85.258 115.479 85.396 115.839 85.576L115.641 87.052C115.353 86.812 115.035 86.626 114.687 86.494C114.339 86.35 113.937 86.278 113.481 86.278C112.953 86.278 112.533 86.38 112.221 86.584C111.921 86.776 111.771 87.07 111.771 87.466C111.771 87.73 111.843 87.946 111.987 88.114C112.131 88.27 112.335 88.402 112.599 88.51C112.863 88.618 113.271 88.756 113.823 88.924C114.507 89.128 115.095 89.416 115.587 89.788C116.091 90.16 116.343 90.748 116.343 91.552C116.343 92.272 116.085 92.89 115.569 93.406C115.065 93.922 114.201 94.18 112.977 94.18ZM120.97 94.18C120.19 94.18 119.608 93.976 119.224 93.568C118.852 93.16 118.666 92.662 118.666 92.074V86.44H117.154L117.298 85.18H118.666V83.002L120.286 82.84V85.18H122.608V86.44H120.286V91.084C120.286 91.696 120.322 92.116 120.394 92.344C120.466 92.572 120.616 92.722 120.844 92.794C121.084 92.854 121.516 92.884 122.14 92.884H122.554L122.428 94.18H120.97ZM123.993 85.18H125.325L125.523 86.638C125.979 86.074 126.411 85.66 126.819 85.396C127.239 85.132 127.677 85 128.133 85C128.277 85 128.415 85.018 128.547 85.054L128.385 86.836C128.229 86.8 128.049 86.782 127.845 86.782C127.401 86.782 126.981 86.884 126.585 87.088C126.189 87.28 125.901 87.508 125.721 87.772V94H123.993V85.18ZM131.617 94.18C130.801 94.18 130.141 93.94 129.637 93.46C129.145 92.98 128.899 92.368 128.899 91.624C128.899 90.508 129.427 89.71 130.483 89.23C131.539 88.75 132.769 88.498 134.173 88.474C134.173 87.682 134.017 87.148 133.705 86.872C133.405 86.584 132.919 86.44 132.247 86.44C131.875 86.44 131.503 86.5 131.131 86.62C130.759 86.728 130.357 86.932 129.925 87.232L129.691 85.918C130.051 85.642 130.495 85.42 131.023 85.252C131.551 85.084 132.103 85 132.679 85C133.435 85 134.035 85.132 134.479 85.396C134.935 85.66 135.265 86.098 135.469 86.71C135.685 87.322 135.793 88.162 135.793 89.23V91.03C135.793 91.51 135.811 91.876 135.847 92.128C135.895 92.368 135.991 92.554 136.135 92.686C136.279 92.818 136.501 92.884 136.801 92.884H136.963L136.711 94.18H136.585C136.081 94.18 135.685 94.132 135.397 94.036C135.109 93.94 134.887 93.802 134.731 93.622C134.587 93.442 134.449 93.196 134.317 92.884C133.573 93.748 132.673 94.18 131.617 94.18ZM131.923 92.884C132.355 92.884 132.769 92.776 133.165 92.56C133.573 92.344 133.909 92.056 134.173 91.696V89.59C132.877 89.638 131.947 89.812 131.383 90.112C130.831 90.4 130.555 90.874 130.555 91.534C130.555 91.99 130.675 92.332 130.915 92.56C131.167 92.776 131.503 92.884 131.923 92.884ZM141.079 94.18C140.299 94.18 139.717 93.976 139.333 93.568C138.961 93.16 138.775 92.662 138.775 92.074V86.44H137.263L137.407 85.18H138.775V83.002L140.395 82.84V85.18H142.717V86.44H140.395V91.084C140.395 91.696 140.431 92.116 140.503 92.344C140.575 92.572 140.725 92.722 140.953 92.794C141.193 92.854 141.625 92.884 142.249 92.884H142.663L142.537 94.18H141.079ZM147.884 94.18C146.984 94.18 146.204 93.982 145.544 93.586C144.884 93.178 144.38 92.626 144.032 91.93C143.684 91.234 143.51 90.454 143.51 89.59C143.51 88.726 143.684 87.946 144.032 87.25C144.38 86.554 144.884 86.008 145.544 85.612C146.204 85.204 146.984 85 147.884 85C148.772 85 149.546 85.204 150.206 85.612C150.878 86.008 151.388 86.554 151.736 87.25C152.084 87.946 152.258 88.726 152.258 89.59C152.258 90.454 152.084 91.234 151.736 91.93C151.388 92.626 150.878 93.178 150.206 93.586C149.546 93.982 148.772 94.18 147.884 94.18ZM147.884 92.74C148.748 92.74 149.414 92.464 149.882 91.912C150.362 91.36 150.602 90.586 150.602 89.59C150.602 88.594 150.362 87.82 149.882 87.268C149.414 86.716 148.748 86.44 147.884 86.44C147.02 86.44 146.348 86.716 145.868 87.268C145.4 87.82 145.166 88.594 145.166 89.59C145.166 90.586 145.4 91.36 145.868 91.912C146.348 92.464 147.02 92.74 147.884 92.74ZM153.928 85.18H155.26L155.458 86.638C155.914 86.074 156.346 85.66 156.754 85.396C157.174 85.132 157.612 85 158.068 85C158.212 85 158.35 85.018 158.482 85.054L158.32 86.836C158.164 86.8 157.984 86.782 157.78 86.782C157.336 86.782 156.916 86.884 156.52 87.088C156.124 87.28 155.836 87.508 155.656 87.772V94H153.928V85.18ZM34.44 103.4H42.126V104.948H36.15V108.638H40.758V110.186H36.15V116H34.44V103.4ZM43.3968 103.4H45.0168V105.2H43.3968V103.4ZM43.3968 107.18H45.0168V116H43.3968V107.18ZM50.7753 120.5C49.5273 120.5 48.5133 120.272 47.7333 119.816C46.9653 119.36 46.5813 118.712 46.5813 117.872C46.5813 116.948 47.0913 116.258 48.1113 115.802C47.5353 115.514 47.2473 115.142 47.2473 114.686C47.2473 114.11 47.5953 113.684 48.2913 113.408C47.7993 113.108 47.4213 112.7 47.1573 112.184C46.8933 111.668 46.7613 111.086 46.7613 110.438C46.7613 109.79 46.9053 109.208 47.1933 108.692C47.4933 108.164 47.9133 107.75 48.4533 107.45C49.0053 107.15 49.6533 107 50.3973 107C51.1893 107 51.9093 107.228 52.5573 107.684C53.1933 107.324 53.9253 107.144 54.7533 107.144H54.8973L54.6993 108.224H54.2853C54.1773 108.224 54.0213 108.236 53.8173 108.26C53.6133 108.284 53.4333 108.314 53.2773 108.35C53.5293 108.638 53.7213 108.962 53.8533 109.322C53.9853 109.682 54.0513 110.054 54.0513 110.438C54.0513 111.11 53.9013 111.716 53.6013 112.256C53.3133 112.784 52.8933 113.204 52.3413 113.516C51.7893 113.816 51.1413 113.966 50.3973 113.966C49.9653 113.966 49.5693 113.912 49.2093 113.804C48.9333 113.9 48.7953 114.056 48.7953 114.272C48.7953 114.56 49.1253 114.752 49.7853 114.848L52.1433 115.226C53.1273 115.382 53.8713 115.664 54.3753 116.072C54.8793 116.48 55.1313 117.044 55.1313 117.764C55.1313 118.664 54.7413 119.342 53.9613 119.798C53.1933 120.266 52.1313 120.5 50.7753 120.5ZM50.3973 112.67C51.0693 112.67 51.5853 112.472 51.9453 112.076C52.3173 111.668 52.5033 111.128 52.5033 110.456C52.5033 109.808 52.3173 109.286 51.9453 108.89C51.5853 108.494 51.0693 108.296 50.3973 108.296C49.7253 108.296 49.2093 108.494 48.8493 108.89C48.4893 109.286 48.3093 109.808 48.3093 110.456C48.3093 111.128 48.4893 111.668 48.8493 112.076C49.2093 112.472 49.7253 112.67 50.3973 112.67ZM50.9193 119.06C51.7473 119.06 52.3833 118.952 52.8273 118.736C53.2713 118.52 53.4933 118.208 53.4933 117.8C53.4933 117.488 53.3553 117.236 53.0793 117.044C52.8153 116.864 52.4133 116.72 51.8733 116.612L49.3533 116.18C48.9933 116.348 48.6993 116.552 48.4713 116.792C48.2433 117.044 48.1293 117.32 48.1293 117.62C48.1293 118.112 48.3753 118.472 48.8673 118.7C49.3593 118.94 50.0433 119.06 50.9193 119.06ZM66.4721 107C68.7281 107 69.8561 108.266 69.8561 110.798V116H68.2361V110.816C68.2361 109.988 68.0741 109.388 67.7501 109.016C67.4261 108.632 66.8981 108.44 66.1661 108.44C64.6061 108.44 63.8261 109.256 63.8261 110.888V116H62.2061V111.14C62.2061 110.132 62.0261 109.43 61.6661 109.034C61.3181 108.638 60.8081 108.44 60.1361 108.44C59.6081 108.44 59.1401 108.536 58.7321 108.728C58.3241 108.92 58.0121 109.208 57.7961 109.592V116H56.1761V107.18H57.4361L57.6161 108.116C58.0601 107.72 58.5041 107.438 58.9481 107.27C59.4041 107.09 59.8901 107 60.4061 107C61.7501 107 62.6981 107.588 63.2501 108.764C63.8621 107.588 64.9361 107 66.4721 107ZM74.0133 116.18C73.1973 116.18 72.5373 115.94 72.0333 115.46C71.5413 114.98 71.2953 114.368 71.2953 113.624C71.2953 112.508 71.8233 111.71 72.8793 111.23C73.9353 110.75 75.1653 110.498 76.5693 110.474C76.5693 109.682 76.4133 109.148 76.1013 108.872C75.8013 108.584 75.3153 108.44 74.6433 108.44C74.2713 108.44 73.8993 108.5 73.5273 108.62C73.1553 108.728 72.7533 108.932 72.3213 109.232L72.0873 107.918C72.4473 107.642 72.8913 107.42 73.4193 107.252C73.9473 107.084 74.4993 107 75.0753 107C75.8313 107 76.4313 107.132 76.8753 107.396C77.3313 107.66 77.6613 108.098 77.8653 108.71C78.0813 109.322 78.1893 110.162 78.1893 111.23V113.03C78.1893 113.51 78.2073 113.876 78.2433 114.128C78.2913 114.368 78.3873 114.554 78.5313 114.686C78.6753 114.818 78.8973 114.884 79.1973 114.884H79.3593L79.1073 116.18H78.9813C78.4773 116.18 78.0813 116.132 77.7933 116.036C77.5053 115.94 77.2833 115.802 77.1273 115.622C76.9833 115.442 76.8453 115.196 76.7133 114.884C75.9693 115.748 75.0693 116.18 74.0133 116.18ZM74.3193 114.884C74.7513 114.884 75.1653 114.776 75.5613 114.56C75.9693 114.344 76.3053 114.056 76.5693 113.696V111.59C75.2733 111.638 74.3433 111.812 73.7793 112.112C73.2273 112.4 72.9513 112.874 72.9513 113.534C72.9513 113.99 73.0713 114.332 73.3113 114.56C73.5633 114.776 73.8993 114.884 74.3193 114.884ZM34.44 125.4H36.15V138H34.44V125.4ZM42.8837 129C45.2837 129 46.4837 130.38 46.4837 133.14V138H44.8637V133.14C44.8637 132.192 44.6837 131.508 44.3237 131.088C43.9757 130.656 43.3877 130.44 42.5597 130.44C42.0317 130.44 41.5517 130.536 41.1197 130.728C40.6877 130.92 40.3637 131.208 40.1477 131.592V138H38.5277V129.18H39.7877L39.9677 130.116C40.4357 129.696 40.9037 129.408 41.3717 129.252C41.8517 129.084 42.3557 129 42.8837 129ZM57.3553 125.4L52.8373 138H51.0373L46.5193 125.4H48.3193L51.9373 135.606L55.5553 125.4H57.3553ZM58.5316 125.4H60.1516V127.2H58.5316V125.4ZM58.5316 129.18H60.1516V138H58.5316V129.18ZM64.848 138.18C64.152 138.18 63.54 138.102 63.012 137.946C62.496 137.778 62.1 137.598 61.824 137.406L62.022 135.84C62.262 136.056 62.628 136.26 63.12 136.452C63.624 136.644 64.176 136.74 64.776 136.74C65.34 136.74 65.772 136.644 66.072 136.452C66.384 136.26 66.54 135.99 66.54 135.642C66.54 135.234 66.372 134.928 66.036 134.724C65.7 134.508 65.28 134.328 64.776 134.184C64.224 134.04 63.756 133.89 63.372 133.734C63 133.566 62.676 133.314 62.4 132.978C62.136 132.642 62.004 132.198 62.004 131.646C62.004 130.89 62.274 130.26 62.814 129.756C63.354 129.252 64.188 129 65.316 129C65.832 129 66.27 129.054 66.63 129.162C66.99 129.258 67.35 129.396 67.71 129.576L67.512 131.052C67.224 130.812 66.906 130.626 66.558 130.494C66.21 130.35 65.808 130.278 65.352 130.278C64.824 130.278 64.404 130.38 64.092 130.584C63.792 130.776 63.642 131.07 63.642 131.466C63.642 131.73 63.714 131.946 63.858 132.114C64.002 132.27 64.206 132.402 64.47 132.51C64.734 132.618 65.142 132.756 65.694 132.924C66.378 133.128 66.966 133.416 67.458 133.788C67.962 134.16 68.214 134.748 68.214 135.552C68.214 136.272 67.956 136.89 67.44 137.406C66.936 137.922 66.072 138.18 64.848 138.18ZM69.7992 125.4H71.4192V127.2H69.7992V125.4ZM69.7992 129.18H71.4192V138H69.7992V129.18ZM77.4656 138.18C76.5656 138.18 75.7856 137.982 75.1256 137.586C74.4656 137.178 73.9616 136.626 73.6136 135.93C73.2656 135.234 73.0916 134.454 73.0916 133.59C73.0916 132.726 73.2656 131.946 73.6136 131.25C73.9616 130.554 74.4656 130.008 75.1256 129.612C75.7856 129.204 76.5656 129 77.4656 129C78.3536 129 79.1276 129.204 79.7876 129.612C80.4596 130.008 80.9696 130.554 81.3176 131.25C81.6656 131.946 81.8396 132.726 81.8396 133.59C81.8396 134.454 81.6656 135.234 81.3176 135.93C80.9696 136.626 80.4596 137.178 79.7876 137.586C79.1276 137.982 78.3536 138.18 77.4656 138.18ZM77.4656 136.74C78.3296 136.74 78.9956 136.464 79.4636 135.912C79.9436 135.36 80.1836 134.586 80.1836 133.59C80.1836 132.594 79.9436 131.82 79.4636 131.268C78.9956 130.716 78.3296 130.44 77.4656 130.44C76.6016 130.44 75.9296 130.716 75.4496 131.268C74.9816 131.82 74.7476 132.594 74.7476 133.59C74.7476 134.586 74.9816 135.36 75.4496 135.912C75.9296 136.464 76.6016 136.74 77.4656 136.74ZM87.8661 129C90.2661 129 91.4661 130.38 91.4661 133.14V138H89.8461V133.14C89.8461 132.192 89.6661 131.508 89.3061 131.088C88.9581 130.656 88.3701 130.44 87.5421 130.44C87.0141 130.44 86.5341 130.536 86.1021 130.728C85.6701 130.92 85.3461 131.208 85.1301 131.592V138H83.5101V129.18H84.7701L84.9501 130.116C85.4181 129.696 85.8861 129.408 86.3541 129.252C86.8341 129.084 87.3381 129 87.8661 129ZM40.956 156.598H36.132L34.926 160H33.126L37.644 147.4H39.444L43.962 160H42.162L40.956 156.598ZM40.416 155.05L38.544 149.794L36.672 155.05H40.416ZM52.8084 146.5V160H51.3684L51.1884 158.92C50.8884 159.328 50.4984 159.64 50.0184 159.856C49.5384 160.072 49.0284 160.18 48.4884 160.18C47.7444 160.18 47.0664 159.976 46.4544 159.568C45.8424 159.16 45.3564 158.608 44.9964 157.912C44.6484 157.216 44.4744 156.448 44.4744 155.608C44.4744 154.792 44.6364 154.03 44.9604 153.322C45.2964 152.614 45.7704 152.05 46.3824 151.63C46.9944 151.21 47.6964 151 48.4884 151C49.0164 151 49.5144 151.096 49.9824 151.288C50.4504 151.48 50.8524 151.774 51.1884 152.17V146.5H52.8084ZM48.7764 158.74C49.2084 158.74 49.6224 158.632 50.0184 158.416C50.4144 158.188 50.7384 157.84 50.9904 157.372C51.2424 156.904 51.3684 156.316 51.3684 155.608C51.3684 154.948 51.2424 154.378 50.9904 153.898C50.7384 153.418 50.4084 153.058 50.0004 152.818C49.6044 152.566 49.1964 152.44 48.7764 152.44C47.9604 152.44 47.3124 152.74 46.8324 153.34C46.3644 153.928 46.1304 154.684 46.1304 155.608C46.1304 156.496 46.3704 157.24 46.8504 157.84C47.3304 158.44 47.9724 158.74 48.7764 158.74ZM58.8328 160.18C57.9328 160.18 57.1528 159.982 56.4928 159.586C55.8328 159.178 55.3288 158.626 54.9808 157.93C54.6328 157.234 54.4588 156.454 54.4588 155.59C54.4588 154.726 54.6328 153.946 54.9808 153.25C55.3288 152.554 55.8328 152.008 56.4928 151.612C57.1528 151.204 57.9328 151 58.8328 151C59.7208 151 60.4948 151.204 61.1548 151.612C61.8268 152.008 62.3368 152.554 62.6848 153.25C63.0328 153.946 63.2068 154.726 63.2068 155.59C63.2068 156.454 63.0328 157.234 62.6848 157.93C62.3368 158.626 61.8268 159.178 61.1548 159.586C60.4948 159.982 59.7208 160.18 58.8328 160.18ZM58.8328 158.74C59.6968 158.74 60.3628 158.464 60.8308 157.912C61.3108 157.36 61.5508 156.586 61.5508 155.59C61.5508 154.594 61.3108 153.82 60.8308 153.268C60.3628 152.716 59.6968 152.44 58.8328 152.44C57.9688 152.44 57.2968 152.716 56.8168 153.268C56.3488 153.82 56.1148 154.594 56.1148 155.59C56.1148 156.586 56.3488 157.36 56.8168 157.912C57.2968 158.464 57.9688 158.74 58.8328 158.74ZM69.2153 151C70.0073 151 70.7033 151.21 71.3033 151.63C71.9153 152.05 72.3833 152.614 72.7073 153.322C73.0313 154.018 73.1933 154.774 73.1933 155.59C73.1933 156.43 73.0133 157.204 72.6533 157.912C72.3053 158.608 71.8253 159.16 71.2133 159.568C70.6133 159.976 69.9473 160.18 69.2153 160.18C68.6753 160.18 68.1533 160.072 67.6493 159.856C67.1453 159.628 66.7553 159.316 66.4793 158.92L66.2993 160H64.8593V146.5H66.4793V152.206C66.8033 151.834 67.2053 151.54 67.6853 151.324C68.1773 151.108 68.6873 151 69.2153 151ZM69.0173 158.74C69.7733 158.74 70.3793 158.44 70.8353 157.84C71.3033 157.228 71.5373 156.478 71.5373 155.59C71.5373 154.678 71.3033 153.928 70.8353 153.34C70.3793 152.74 69.7733 152.44 69.0173 152.44C68.2733 152.44 67.6493 152.716 67.1453 153.268C66.6413 153.808 66.3893 154.582 66.3893 155.59C66.3893 156.634 66.6353 157.42 67.1273 157.948C67.6313 158.476 68.2613 158.74 69.0173 158.74ZM79.0917 160.18C78.0837 160.18 77.2197 159.976 76.4997 159.568C75.7917 159.148 75.2517 158.584 74.8797 157.876C74.5077 157.168 74.3217 156.382 74.3217 155.518C74.3217 154.69 74.4897 153.934 74.8257 153.25C75.1737 152.554 75.6717 152.008 76.3197 151.612C76.9797 151.204 77.7537 151 78.6417 151C79.7697 151 80.6817 151.33 81.3777 151.99C82.0857 152.65 82.4397 153.562 82.4397 154.726C82.4397 155.026 82.4157 155.314 82.3677 155.59H75.9777C76.0857 156.73 76.4337 157.54 77.0217 158.02C77.6097 158.5 78.3657 158.74 79.2897 158.74C80.2137 158.74 81.0597 158.566 81.8277 158.218L82.0437 159.496C81.0237 159.952 80.0397 160.18 79.0917 160.18ZM80.7657 154.474C80.7657 153.838 80.5857 153.34 80.2257 152.98C79.8657 152.62 79.3257 152.44 78.6057 152.44C77.9097 152.44 77.3637 152.614 76.9677 152.962C76.5717 153.298 76.2897 153.802 76.1217 154.474H80.7657ZM91.3736 153.646L87.1616 147.4H89.1416L92.3636 152.17L95.5676 147.4H97.5476L93.3536 153.646L97.6196 160H95.6396L92.3636 155.122L89.0696 160H87.0896L91.3736 153.646ZM99.1275 147.4H103.79C105.014 147.4 106.1 147.652 107.048 148.156C107.996 148.648 108.734 149.374 109.262 150.334C109.79 151.282 110.054 152.404 110.054 153.7C110.054 154.996 109.79 156.124 109.262 157.084C108.734 158.032 107.996 158.758 107.048 159.262C106.1 159.754 105.014 160 103.79 160H99.1275V147.4ZM103.79 158.452C105.194 158.452 106.274 158.026 107.03 157.174C107.798 156.31 108.182 155.152 108.182 153.7C108.182 152.248 107.798 151.096 107.03 150.244C106.274 149.38 105.194 148.948 103.79 148.948H100.838V158.452H103.79ZM40.758 175.142C41.55 175.334 42.156 175.706 42.576 176.258C42.996 176.798 43.206 177.512 43.206 178.4C43.206 179.516 42.846 180.398 42.126 181.046C41.418 181.682 40.44 182 39.192 182H34.44V169.4H38.418C39.57 169.4 40.458 169.658 41.082 170.174C41.718 170.69 42.036 171.458 42.036 172.478C42.036 173.078 41.928 173.612 41.712 174.08C41.496 174.548 41.178 174.902 40.758 175.142ZM36.15 174.638H38.202C38.874 174.638 39.384 174.506 39.732 174.242C40.092 173.966 40.272 173.48 40.272 172.784C40.272 172.088 40.092 171.608 39.732 171.344C39.384 171.068 38.874 170.93 38.202 170.93H36.15V174.638ZM39.048 180.452C39.756 180.452 40.314 180.278 40.722 179.93C41.13 179.57 41.334 179.042 41.334 178.346C41.334 176.906 40.572 176.186 39.048 176.186H36.15V180.452H39.048ZM46.8902 182.18C46.0742 182.18 45.4142 181.94 44.9102 181.46C44.4182 180.98 44.1722 180.368 44.1722 179.624C44.1722 178.508 44.7002 177.71 45.7562 177.23C46.8122 176.75 48.0422 176.498 49.4462 176.474C49.4462 175.682 49.2902 175.148 48.9782 174.872C48.6782 174.584 48.1922 174.44 47.5202 174.44C47.1482 174.44 46.7762 174.5 46.4042 174.62C46.0322 174.728 45.6302 174.932 45.1982 175.232L44.9642 173.918C45.3242 173.642 45.7682 173.42 46.2962 173.252C46.8242 173.084 47.3762 173 47.9522 173C48.7082 173 49.3082 173.132 49.7522 173.396C50.2082 173.66 50.5382 174.098 50.7422 174.71C50.9582 175.322 51.0662 176.162 51.0662 177.23V179.03C51.0662 179.51 51.0842 179.876 51.1202 180.128C51.1682 180.368 51.2642 180.554 51.4082 180.686C51.5522 180.818 51.7742 180.884 52.0742 180.884H52.2362L51.9842 182.18H51.8582C51.3542 182.18 50.9582 182.132 50.6702 182.036C50.3822 181.94 50.1602 181.802 50.0042 181.622C49.8602 181.442 49.7222 181.196 49.5902 180.884C48.8462 181.748 47.9462 182.18 46.8902 182.18ZM47.1962 180.884C47.6282 180.884 48.0422 180.776 48.4382 180.56C48.8462 180.344 49.1822 180.056 49.4462 179.696V177.59C48.1502 177.638 47.2202 177.812 46.6562 178.112C46.1042 178.4 45.8282 178.874 45.8282 179.534C45.8282 179.99 45.9482 180.332 46.1882 180.56C46.4402 180.776 46.7762 180.884 47.1962 180.884ZM55.7547 182.18C54.9627 182.18 54.3807 181.976 54.0087 181.568C53.6487 181.16 53.4687 180.656 53.4687 180.056V168.5H55.0887V179.12C55.0887 179.648 55.1187 180.032 55.1787 180.272C55.2507 180.512 55.3827 180.674 55.5747 180.758C55.7667 180.842 56.0787 180.884 56.5107 180.884L56.2767 182.18H55.7547ZM60.2426 182.18C59.5466 182.18 58.9346 182.102 58.4066 181.946C57.8906 181.778 57.4946 181.598 57.2186 181.406L57.4166 179.84C57.6566 180.056 58.0226 180.26 58.5146 180.452C59.0186 180.644 59.5706 180.74 60.1706 180.74C60.7346 180.74 61.1666 180.644 61.4666 180.452C61.7786 180.26 61.9346 179.99 61.9346 179.642C61.9346 179.234 61.7666 178.928 61.4306 178.724C61.0946 178.508 60.6746 178.328 60.1706 178.184C59.6186 178.04 59.1506 177.89 58.7666 177.734C58.3946 177.566 58.0706 177.314 57.7946 176.978C57.5306 176.642 57.3986 176.198 57.3986 175.646C57.3986 174.89 57.6686 174.26 58.2086 173.756C58.7486 173.252 59.5826 173 60.7106 173C61.2266 173 61.6646 173.054 62.0246 173.162C62.3846 173.258 62.7446 173.396 63.1046 173.576L62.9066 175.052C62.6186 174.812 62.3006 174.626 61.9526 174.494C61.6046 174.35 61.2026 174.278 60.7466 174.278C60.2186 174.278 59.7986 174.38 59.4866 174.584C59.1866 174.776 59.0366 175.07 59.0366 175.466C59.0366 175.73 59.1086 175.946 59.2526 176.114C59.3966 176.27 59.6006 176.402 59.8646 176.51C60.1286 176.618 60.5366 176.756 61.0886 176.924C61.7726 177.128 62.3606 177.416 62.8526 177.788C63.3566 178.16 63.6086 178.748 63.6086 179.552C63.6086 180.272 63.3506 180.89 62.8346 181.406C62.3306 181.922 61.4666 182.18 60.2426 182.18ZM67.2457 182.18C66.4297 182.18 65.7697 181.94 65.2657 181.46C64.7737 180.98 64.5277 180.368 64.5277 179.624C64.5277 178.508 65.0557 177.71 66.1117 177.23C67.1677 176.75 68.3977 176.498 69.8017 176.474C69.8017 175.682 69.6457 175.148 69.3337 174.872C69.0337 174.584 68.5477 174.44 67.8757 174.44C67.5037 174.44 67.1317 174.5 66.7597 174.62C66.3877 174.728 65.9857 174.932 65.5537 175.232L65.3197 173.918C65.6797 173.642 66.1237 173.42 66.6517 173.252C67.1797 173.084 67.7317 173 68.3077 173C69.0637 173 69.6637 173.132 70.1077 173.396C70.5637 173.66 70.8937 174.098 71.0977 174.71C71.3137 175.322 71.4217 176.162 71.4217 177.23V179.03C71.4217 179.51 71.4397 179.876 71.4757 180.128C71.5237 180.368 71.6197 180.554 71.7637 180.686C71.9077 180.818 72.1297 180.884 72.4297 180.884H72.5917L72.3397 182.18H72.2137C71.7097 182.18 71.3137 182.132 71.0257 182.036C70.7377 181.94 70.5157 181.802 70.3597 181.622C70.2157 181.442 70.0777 181.196 69.9457 180.884C69.2017 181.748 68.3017 182.18 67.2457 182.18ZM67.5517 180.884C67.9837 180.884 68.3977 180.776 68.7937 180.56C69.2017 180.344 69.5377 180.056 69.8017 179.696V177.59C68.5057 177.638 67.5757 177.812 67.0117 178.112C66.4597 178.4 66.1837 178.874 66.1837 179.534C66.1837 179.99 66.3037 180.332 66.5437 180.56C66.7957 180.776 67.1317 180.884 67.5517 180.884ZM84.1381 173C86.3941 173 87.5221 174.266 87.5221 176.798V182H85.9021V176.816C85.9021 175.988 85.7401 175.388 85.4161 175.016C85.0921 174.632 84.5641 174.44 83.8321 174.44C82.2721 174.44 81.4921 175.256 81.4921 176.888V182H79.8721V177.14C79.8721 176.132 79.6921 175.43 79.3321 175.034C78.9841 174.638 78.4741 174.44 77.8021 174.44C77.2741 174.44 76.8061 174.536 76.3981 174.728C75.9901 174.92 75.6781 175.208 75.4621 175.592V182H73.8421V173.18H75.1021L75.2821 174.116C75.7261 173.72 76.1701 173.438 76.6141 173.27C77.0701 173.09 77.5561 173 78.0721 173C79.4161 173 80.3641 173.588 80.9161 174.764C81.5281 173.588 82.6021 173 84.1381 173ZM89.6273 169.4H91.2473V171.2H89.6273V169.4ZM89.6273 173.18H91.2473V182H89.6273V173.18ZM101.272 173.18V186.356H99.6518V180.938C99.3638 181.346 98.9798 181.658 98.4998 181.874C98.0198 182.078 97.4798 182.18 96.8798 182.18C96.0398 182.18 95.3198 181.982 94.7197 181.586C94.1318 181.178 93.6878 180.632 93.3878 179.948C93.0878 179.252 92.9377 178.466 92.9377 177.59C92.9377 176.774 93.0938 176.018 93.4058 175.322C93.7298 174.614 94.1858 174.05 94.7738 173.63C95.3738 173.21 96.0698 173 96.8618 173C97.5458 173 98.1218 173.114 98.5898 173.342C99.0578 173.57 99.4718 173.918 99.8318 174.386L100.012 173.18H101.272ZM97.0957 180.74C97.8758 180.74 98.5118 180.482 99.0038 179.966C99.4958 179.438 99.7418 178.646 99.7418 177.59C99.7418 176.57 99.4898 175.79 98.9858 175.25C98.4938 174.71 97.8638 174.44 97.0957 174.44C96.3158 174.44 95.7038 174.722 95.2598 175.286C94.8158 175.838 94.5938 176.606 94.5938 177.59C94.5938 178.574 94.8158 179.348 95.2598 179.912C95.7038 180.464 96.3158 180.74 97.0957 180.74ZM39.516 204.252C37.776 204.252 36.468 203.766 35.592 202.794C34.728 201.81 34.296 200.43 34.296 198.654V191.4H36.006V198.186C36.006 199.566 36.252 200.664 36.744 201.48C37.236 202.296 38.16 202.704 39.516 202.704C40.872 202.704 41.796 202.296 42.288 201.48C42.78 200.652 43.026 199.554 43.026 198.186V191.4H44.736V198.654C44.736 200.43 44.298 201.81 43.422 202.794C42.558 203.766 41.256 204.252 39.516 204.252ZM49.3969 204.18C48.7009 204.18 48.0889 204.102 47.5609 203.946C47.0449 203.778 46.6489 203.598 46.3729 203.406L46.5709 201.84C46.8109 202.056 47.1769 202.26 47.6689 202.452C48.1729 202.644 48.7249 202.74 49.3249 202.74C49.8889 202.74 50.3209 202.644 50.6209 202.452C50.9329 202.26 51.0889 201.99 51.0889 201.642C51.0889 201.234 50.9209 200.928 50.5849 200.724C50.2489 200.508 49.8289 200.328 49.3249 200.184C48.7729 200.04 48.3049 199.89 47.9209 199.734C47.5489 199.566 47.2249 199.314 46.9489 198.978C46.6849 198.642 46.5529 198.198 46.5529 197.646C46.5529 196.89 46.8229 196.26 47.3629 195.756C47.9029 195.252 48.7369 195 49.8649 195C50.3809 195 50.8189 195.054 51.1789 195.162C51.5389 195.258 51.8989 195.396 52.2589 195.576L52.0609 197.052C51.7729 196.812 51.4549 196.626 51.1069 196.494C50.7589 196.35 50.3569 196.278 49.9009 196.278C49.3729 196.278 48.9529 196.38 48.6409 196.584C48.3409 196.776 48.1909 197.07 48.1909 197.466C48.1909 197.73 48.2629 197.946 48.4069 198.114C48.5509 198.27 48.7549 198.402 49.0189 198.51C49.2829 198.618 49.6909 198.756 50.2429 198.924C50.9269 199.128 51.5149 199.416 52.0069 199.788C52.5109 200.16 52.7629 200.748 52.7629 201.552C52.7629 202.272 52.5049 202.89 51.9889 203.406C51.4849 203.922 50.6209 204.18 49.3969 204.18ZM56.4 204.18C55.584 204.18 54.924 203.94 54.42 203.46C53.928 202.98 53.682 202.368 53.682 201.624C53.682 200.508 54.21 199.71 55.266 199.23C56.322 198.75 57.552 198.498 58.956 198.474C58.956 197.682 58.8 197.148 58.488 196.872C58.188 196.584 57.702 196.44 57.03 196.44C56.658 196.44 56.286 196.5 55.914 196.62C55.542 196.728 55.14 196.932 54.708 197.232L54.474 195.918C54.834 195.642 55.278 195.42 55.806 195.252C56.334 195.084 56.886 195 57.462 195C58.218 195 58.818 195.132 59.262 195.396C59.718 195.66 60.048 196.098 60.252 196.71C60.468 197.322 60.576 198.162 60.576 199.23V201.03C60.576 201.51 60.594 201.876 60.63 202.128C60.678 202.368 60.774 202.554 60.918 202.686C61.062 202.818 61.284 202.884 61.584 202.884H61.746L61.494 204.18H61.368C60.864 204.18 60.468 204.132 60.18 204.036C59.892 203.94 59.67 203.802 59.514 203.622C59.37 203.442 59.232 203.196 59.1 202.884C58.356 203.748 57.456 204.18 56.4 204.18ZM56.706 202.884C57.138 202.884 57.552 202.776 57.948 202.56C58.356 202.344 58.692 202.056 58.956 201.696V199.59C57.66 199.638 56.73 199.812 56.166 200.112C55.614 200.4 55.338 200.874 55.338 201.534C55.338 201.99 55.458 202.332 55.698 202.56C55.95 202.776 56.286 202.884 56.706 202.884ZM67.3344 195C68.1264 195 68.8224 195.21 69.4224 195.63C70.0344 196.05 70.5024 196.614 70.8264 197.322C71.1504 198.018 71.3124 198.774 71.3124 199.59C71.3124 200.43 71.1324 201.204 70.7724 201.912C70.4244 202.608 69.9444 203.16 69.3324 203.568C68.7324 203.976 68.0664 204.18 67.3344 204.18C66.7944 204.18 66.2724 204.072 65.7684 203.856C65.2644 203.628 64.8744 203.316 64.5984 202.92L64.4184 204H62.9784V190.5H64.5984V196.206C64.9224 195.834 65.3244 195.54 65.8044 195.324C66.2964 195.108 66.8064 195 67.3344 195ZM67.1364 202.74C67.8924 202.74 68.4984 202.44 68.9544 201.84C69.4224 201.228 69.6564 200.478 69.6564 199.59C69.6564 198.678 69.4224 197.928 68.9544 197.34C68.4984 196.74 67.8924 196.44 67.1364 196.44C66.3924 196.44 65.7684 196.716 65.2644 197.268C64.7604 197.808 64.5084 198.582 64.5084 199.59C64.5084 200.634 64.7544 201.42 65.2464 201.948C65.7504 202.476 66.3804 202.74 67.1364 202.74ZM72.9808 191.4H74.6008V193.2H72.9808V191.4ZM72.9808 195.18H74.6008V204H72.9808V195.18ZM79.0633 204.18C78.2713 204.18 77.6893 203.976 77.3173 203.568C76.9573 203.16 76.7773 202.656 76.7773 202.056V190.5H78.3973V201.12C78.3973 201.648 78.4273 202.032 78.4873 202.272C78.5593 202.512 78.6913 202.674 78.8833 202.758C79.0753 202.842 79.3873 202.884 79.8193 202.884L79.5853 204.18H79.0633ZM81.0492 191.4H82.6692V193.2H81.0492V191.4ZM81.0492 195.18H82.6692V204H81.0492V195.18ZM87.9056 204.18C87.1256 204.18 86.5436 203.976 86.1596 203.568C85.7876 203.16 85.6016 202.662 85.6016 202.074V196.44H84.0896L84.2336 195.18H85.6016V193.002L87.2216 192.84V195.18H89.5436V196.44H87.2216V201.084C87.2216 201.696 87.2576 202.116 87.3296 202.344C87.4016 202.572 87.5516 202.722 87.7796 202.794C88.0196 202.854 88.4516 202.884 89.0756 202.884H89.4896L89.3636 204.18H87.9056ZM93.6281 203.604L89.9561 195.18H91.7561L94.5101 201.732L96.9941 195.18H98.7941L93.3941 208.356H91.5941L93.6281 203.604ZM104.401 191.4H106.111V196.602H112.519V191.4H114.229V204H112.519V198.222H106.111V204H104.401V191.4ZM123.811 195.18V204H122.371L122.191 203.028C121.903 203.424 121.561 203.718 121.165 203.91C120.781 204.09 120.307 204.18 119.743 204.18C118.687 204.18 117.877 203.862 117.313 203.226C116.761 202.578 116.485 201.606 116.485 200.31V195.18H118.105V199.86C118.105 200.82 118.267 201.54 118.591 202.02C118.927 202.5 119.449 202.74 120.157 202.74C120.577 202.74 120.967 202.656 121.327 202.488C121.699 202.32 121.987 202.074 122.191 201.75V195.18H123.811ZM130.352 195C131.144 195 131.84 195.21 132.44 195.63C133.052 196.05 133.52 196.614 133.844 197.322C134.168 198.018 134.33 198.774 134.33 199.59C134.33 200.43 134.15 201.204 133.79 201.912C133.442 202.608 132.962 203.16 132.35 203.568C131.75 203.976 131.084 204.18 130.352 204.18C129.812 204.18 129.29 204.072 128.786 203.856C128.282 203.628 127.892 203.316 127.616 202.92L127.436 204H125.996V190.5H127.616V196.206C127.94 195.834 128.342 195.54 128.822 195.324C129.314 195.108 129.824 195 130.352 195ZM130.154 202.74C130.91 202.74 131.516 202.44 131.972 201.84C132.44 201.228 132.674 200.478 132.674 199.59C132.674 198.678 132.44 197.928 131.972 197.34C131.516 196.74 130.91 196.44 130.154 196.44C129.41 196.44 128.786 196.716 128.282 197.268C127.778 197.808 127.526 198.582 127.526 199.59C127.526 200.634 127.772 201.42 128.264 201.948C128.768 202.476 129.398 202.74 130.154 202.74ZM44.952 226L43.764 216.478L40.344 223.012L36.852 216.46L35.664 226H33.864L35.556 213.4H37.014L40.326 219.646L43.602 213.4H45.078L46.752 226H44.952ZM48.5296 213.4H50.1496V215.2H48.5296V213.4ZM48.5296 217.18H50.1496V226H48.5296V217.18ZM52.3441 217.18H53.6761L53.8741 218.638C54.3301 218.074 54.7621 217.66 55.1701 217.396C55.5901 217.132 56.0281 217 56.4841 217C56.6281 217 56.7661 217.018 56.8981 217.054L56.7361 218.836C56.5801 218.8 56.4001 218.782 56.1961 218.782C55.7521 218.782 55.3321 218.884 54.9361 219.088C54.5401 219.28 54.2521 219.508 54.0721 219.772V226H52.3441V217.18ZM61.6629 226.18C60.7629 226.18 59.9829 225.982 59.3229 225.586C58.6629 225.178 58.1589 224.626 57.8109 223.93C57.4629 223.234 57.2889 222.454 57.2889 221.59C57.2889 220.726 57.4629 219.946 57.8109 219.25C58.1589 218.554 58.6629 218.008 59.3229 217.612C59.9829 217.204 60.7629 217 61.6629 217C62.5509 217 63.3249 217.204 63.9849 217.612C64.6569 218.008 65.1669 218.554 65.5149 219.25C65.8629 219.946 66.0369 220.726 66.0369 221.59C66.0369 222.454 65.8629 223.234 65.5149 223.93C65.1669 224.626 64.6569 225.178 63.9849 225.586C63.3249 225.982 62.5509 226.18 61.6629 226.18ZM61.6629 224.74C62.5269 224.74 63.1929 224.464 63.6609 223.912C64.1409 223.36 64.3809 222.586 64.3809 221.59C64.3809 220.594 64.1409 219.82 63.6609 219.268C63.1929 218.716 62.5269 218.44 61.6629 218.44C60.7989 218.44 60.1269 218.716 59.6469 219.268C59.1789 219.82 58.9449 220.594 58.9449 221.59C58.9449 222.586 59.1789 223.36 59.6469 223.912C60.1269 224.464 60.7989 224.74 61.6629 224.74ZM44.952 248L43.764 238.478L40.344 245.012L36.852 238.46L35.664 248H33.864L35.556 235.4H37.014L40.326 241.646L43.602 235.4H45.078L46.752 248H44.952ZM48.5296 235.4H50.1496V237.2H48.5296V235.4ZM48.5296 239.18H50.1496V248H48.5296V239.18ZM56.3941 248.18C55.4341 248.18 54.6061 247.982 53.9101 247.586C53.2261 247.19 52.7101 246.65 52.3621 245.966C52.0141 245.27 51.8401 244.496 51.8401 243.644C51.8401 242.252 52.2301 241.13 53.0101 240.278C53.8021 239.426 54.9721 239 56.5201 239C57.4321 239 58.2361 239.174 58.9321 239.522L58.6801 240.944C57.9481 240.608 57.2161 240.44 56.4841 240.44C55.5241 240.44 54.7861 240.716 54.2701 241.268C53.7541 241.808 53.4961 242.576 53.4961 243.572C53.4961 244.568 53.7421 245.348 54.2341 245.912C54.7381 246.476 55.4761 246.758 56.4481 246.758C57.2281 246.758 57.9781 246.578 58.6981 246.218L58.9141 247.514C58.6501 247.694 58.2841 247.85 57.8161 247.982C57.3601 248.114 56.8861 248.18 56.3941 248.18ZM60.5179 239.18H61.8499L62.0479 240.638C62.5039 240.074 62.9359 239.66 63.3439 239.396C63.7639 239.132 64.2019 239 64.6579 239C64.8019 239 64.9399 239.018 65.0719 239.054L64.9099 240.836C64.7539 240.8 64.5739 240.782 64.3699 240.782C63.9259 240.782 63.5059 240.884 63.1099 241.088C62.7139 241.28 62.4259 241.508 62.2459 241.772V248H60.5179V239.18ZM69.8367 248.18C68.9367 248.18 68.1567 247.982 67.4967 247.586C66.8367 247.178 66.3327 246.626 65.9847 245.93C65.6367 245.234 65.4627 244.454 65.4627 243.59C65.4627 242.726 65.6367 241.946 65.9847 241.25C66.3327 240.554 66.8367 240.008 67.4967 239.612C68.1567 239.204 68.9367 239 69.8367 239C70.7247 239 71.4987 239.204 72.1587 239.612C72.8307 240.008 73.3407 240.554 73.6887 241.25C74.0367 241.946 74.2107 242.726 74.2107 243.59C74.2107 244.454 74.0367 245.234 73.6887 245.93C73.3407 246.626 72.8307 247.178 72.1587 247.586C71.4987 247.982 70.7247 248.18 69.8367 248.18ZM69.8367 246.74C70.7007 246.74 71.3667 246.464 71.8347 245.912C72.3147 245.36 72.5547 244.586 72.5547 243.59C72.5547 242.594 72.3147 241.82 71.8347 241.268C71.3667 240.716 70.7007 240.44 69.8367 240.44C68.9727 240.44 68.3007 240.716 67.8207 241.268C67.3527 241.82 67.1187 242.594 67.1187 243.59C67.1187 244.586 67.3527 245.36 67.8207 245.912C68.3007 246.464 68.9727 246.74 69.8367 246.74ZM78.3832 248.18C77.6872 248.18 77.0752 248.102 76.5472 247.946C76.0312 247.778 75.6352 247.598 75.3592 247.406L75.5572 245.84C75.7972 246.056 76.1632 246.26 76.6552 246.452C77.1592 246.644 77.7112 246.74 78.3112 246.74C78.8752 246.74 79.3072 246.644 79.6072 246.452C79.9192 246.26 80.0752 245.99 80.0752 245.642C80.0752 245.234 79.9072 244.928 79.5712 244.724C79.2352 244.508 78.8152 244.328 78.3112 244.184C77.7592 244.04 77.2912 243.89 76.9072 243.734C76.5352 243.566 76.2112 243.314 75.9352 242.978C75.6712 242.642 75.5392 242.198 75.5392 241.646C75.5392 240.89 75.8092 240.26 76.3492 239.756C76.8892 239.252 77.7232 239 78.8512 239C79.3672 239 79.8052 239.054 80.1652 239.162C80.5252 239.258 80.8852 239.396 81.2452 239.576L81.0472 241.052C80.7592 240.812 80.4412 240.626 80.0932 240.494C79.7452 240.35 79.3432 240.278 78.8872 240.278C78.3592 240.278 77.9392 240.38 77.6272 240.584C77.3272 240.776 77.1772 241.07 77.1772 241.466C77.1772 241.73 77.2492 241.946 77.3932 242.114C77.5372 242.27 77.7412 242.402 78.0052 242.51C78.2692 242.618 78.6772 242.756 79.2292 242.924C79.9132 243.128 80.5012 243.416 80.9932 243.788C81.4972 244.16 81.7492 244.748 81.7492 245.552C81.7492 246.272 81.4912 246.89 80.9752 247.406C80.4712 247.922 79.6072 248.18 78.3832 248.18ZM87.1863 248.18C86.2863 248.18 85.5063 247.982 84.8463 247.586C84.1863 247.178 83.6823 246.626 83.3343 245.93C82.9863 245.234 82.8123 244.454 82.8123 243.59C82.8123 242.726 82.9863 241.946 83.3343 241.25C83.6823 240.554 84.1863 240.008 84.8463 239.612C85.5063 239.204 86.2863 239 87.1863 239C88.0743 239 88.8483 239.204 89.5083 239.612C90.1803 240.008 90.6903 240.554 91.0383 241.25C91.3863 241.946 91.5603 242.726 91.5603 243.59C91.5603 244.454 91.3863 245.234 91.0383 245.93C90.6903 246.626 90.1803 247.178 89.5083 247.586C88.8483 247.982 88.0743 248.18 87.1863 248.18ZM87.1863 246.74C88.0503 246.74 88.7163 246.464 89.1843 245.912C89.6643 245.36 89.9043 244.586 89.9043 243.59C89.9043 242.594 89.6643 241.82 89.1843 241.268C88.7163 240.716 88.0503 240.44 87.1863 240.44C86.3223 240.44 85.6503 240.716 85.1703 241.268C84.7023 241.82 84.4683 242.594 84.4683 243.59C84.4683 244.586 84.7023 245.36 85.1703 245.912C85.6503 246.464 86.3223 246.74 87.1863 246.74ZM93.7549 240.44H92.2249L92.4409 239.18H93.7549V237.092C93.7549 236.288 93.9649 235.658 94.3849 235.202C94.8169 234.734 95.4349 234.5 96.2389 234.5C96.7669 234.5 97.2349 234.578 97.6429 234.734L97.3909 236.102C97.1029 235.994 96.8029 235.94 96.4909 235.94C95.7469 235.94 95.3749 236.36 95.3749 237.2V239.18H97.7509V240.44H95.3749V248H93.7549V240.44ZM102.144 248.18C101.364 248.18 100.782 247.976 100.398 247.568C100.026 247.16 99.8399 246.662 99.8399 246.074V240.44H98.3279L98.4719 239.18H99.8399V237.002L101.46 236.84V239.18H103.782V240.44H101.46V245.084C101.46 245.696 101.496 246.116 101.568 246.344C101.64 246.572 101.79 246.722 102.018 246.794C102.258 246.854 102.69 246.884 103.314 246.884H103.728L103.602 248.18H102.144ZM115.041 248.252C113.841 248.252 112.767 247.982 111.819 247.442C110.883 246.902 110.151 246.14 109.623 245.156C109.095 244.16 108.831 243.008 108.831 241.7C108.831 240.392 109.095 239.246 109.623 238.262C110.151 237.266 110.883 236.498 111.819 235.958C112.767 235.418 113.841 235.148 115.041 235.148C116.241 235.148 117.309 235.418 118.245 235.958C119.193 236.498 119.931 237.266 120.459 238.262C120.987 239.246 121.251 240.392 121.251 241.7C121.251 243.008 120.987 244.16 120.459 245.156C119.931 246.14 119.193 246.902 118.245 247.442C117.309 247.982 116.241 248.252 115.041 248.252ZM115.041 246.596C115.977 246.596 116.775 246.386 117.435 245.966C118.095 245.534 118.587 244.952 118.911 244.22C119.247 243.476 119.415 242.636 119.415 241.7C119.415 240.764 119.247 239.93 118.911 239.198C118.587 238.454 118.095 237.872 117.435 237.452C116.775 237.02 115.977 236.804 115.041 236.804C114.105 236.804 113.307 237.02 112.647 237.452C111.987 237.872 111.489 238.454 111.153 239.198C110.829 239.93 110.667 240.764 110.667 241.7C110.667 242.636 110.829 243.476 111.153 244.22C111.489 244.952 111.987 245.534 112.647 245.966C113.307 246.386 114.105 246.596 115.041 246.596ZM123.673 240.44H122.143L122.359 239.18H123.673V237.092C123.673 236.288 123.883 235.658 124.303 235.202C124.735 234.734 125.353 234.5 126.157 234.5C126.685 234.5 127.153 234.578 127.561 234.734L127.309 236.102C127.021 235.994 126.721 235.94 126.409 235.94C125.665 235.94 125.293 236.36 125.293 237.2V239.18H127.669V240.44H125.293V248H123.673V240.44ZM129.632 240.44H128.102L128.318 239.18H129.632V237.092C129.632 236.288 129.842 235.658 130.262 235.202C130.694 234.734 131.312 234.5 132.116 234.5C132.644 234.5 133.112 234.578 133.52 234.734L133.268 236.102C132.98 235.994 132.68 235.94 132.368 235.94C131.624 235.94 131.252 236.36 131.252 237.2V239.18H133.628V240.44H131.252V248H129.632V240.44ZM134.979 235.4H136.599V237.2H134.979V235.4ZM134.979 239.18H136.599V248H134.979V239.18ZM142.843 248.18C141.883 248.18 141.055 247.982 140.359 247.586C139.675 247.19 139.159 246.65 138.811 245.966C138.463 245.27 138.289 244.496 138.289 243.644C138.289 242.252 138.679 241.13 139.459 240.278C140.251 239.426 141.421 239 142.969 239C143.881 239 144.685 239.174 145.381 239.522L145.129 240.944C144.397 240.608 143.665 240.44 142.933 240.44C141.973 240.44 141.235 240.716 140.719 241.268C140.203 241.808 139.945 242.576 139.945 243.572C139.945 244.568 140.191 245.348 140.683 245.912C141.187 246.476 141.925 246.758 142.897 246.758C143.677 246.758 144.427 246.578 145.147 246.218L145.363 247.514C145.099 247.694 144.733 247.85 144.265 247.982C143.809 248.114 143.335 248.18 142.843 248.18ZM151.074 248.18C150.066 248.18 149.202 247.976 148.482 247.568C147.774 247.148 147.234 246.584 146.862 245.876C146.49 245.168 146.304 244.382 146.304 243.518C146.304 242.69 146.472 241.934 146.808 241.25C147.156 240.554 147.654 240.008 148.302 239.612C148.962 239.204 149.736 239 150.624 239C151.752 239 152.664 239.33 153.36 239.99C154.068 240.65 154.422 241.562 154.422 242.726C154.422 243.026 154.398 243.314 154.35 243.59H147.96C148.068 244.73 148.416 245.54 149.004 246.02C149.592 246.5 150.348 246.74 151.272 246.74C152.196 246.74 153.042 246.566 153.81 246.218L154.026 247.496C153.006 247.952 152.022 248.18 151.074 248.18ZM152.748 242.474C152.748 241.838 152.568 241.34 152.208 240.98C151.848 240.62 151.308 240.44 150.588 240.44C149.892 240.44 149.346 240.614 148.95 240.962C148.554 241.298 148.272 241.802 148.104 242.474H152.748ZM39.876 270.252C38.712 270.252 37.662 269.982 36.726 269.442C35.79 268.902 35.052 268.134 34.512 267.138C33.972 266.142 33.702 264.99 33.702 263.682C33.702 262.374 33.978 261.228 34.53 260.244C35.094 259.26 35.868 258.498 36.852 257.958C37.836 257.418 38.958 257.148 40.218 257.148C40.854 257.148 41.478 257.214 42.09 257.346C42.714 257.478 43.272 257.652 43.764 257.868L43.602 259.362C42.438 258.918 41.328 258.696 40.272 258.696C39.228 258.696 38.352 258.918 37.644 259.362C36.948 259.794 36.426 260.388 36.078 261.144C35.742 261.888 35.574 262.74 35.574 263.7C35.574 265.212 35.976 266.424 36.78 267.336C37.596 268.248 38.79 268.704 40.362 268.704C40.698 268.704 41.058 268.68 41.442 268.632C41.826 268.572 42.168 268.482 42.468 268.362V265.23H40.488V263.682H44.178V269.298C43.65 269.586 43.014 269.82 42.27 270C41.538 270.168 40.74 270.252 39.876 270.252ZM46.0863 257.4H47.7063V259.2H46.0863V257.4ZM46.0863 261.18H47.7063V270H46.0863V261.18ZM52.9427 270.18C52.1627 270.18 51.5807 269.976 51.1967 269.568C50.8247 269.16 50.6387 268.662 50.6387 268.074V262.44H49.1267L49.2707 261.18H50.6387V259.002L52.2587 258.84V261.18H54.5807V262.44H52.2587V267.084C52.2587 267.696 52.2947 268.116 52.3667 268.344C52.4387 268.572 52.5887 268.722 52.8167 268.794C53.0567 268.854 53.4887 268.884 54.1127 268.884H54.5267L54.4007 270.18H52.9427ZM60.1772 261C61.2932 261 62.1452 261.366 62.7332 262.098C63.3212 262.83 63.6152 263.826 63.6152 265.086V270H61.9952V265.284C61.9952 264.312 61.8152 263.598 61.4552 263.142C61.1072 262.674 60.5612 262.44 59.8172 262.44C59.3612 262.44 58.9412 262.548 58.5572 262.764C58.1732 262.968 57.8492 263.262 57.5852 263.646V270H55.9472V256.5H57.5852V262.026C57.9332 261.69 58.3112 261.438 58.7192 261.27C59.1392 261.09 59.6252 261 60.1772 261ZM72.957 261.18V270H71.517L71.337 269.028C71.049 269.424 70.707 269.718 70.311 269.91C69.927 270.09 69.453 270.18 68.889 270.18C67.833 270.18 67.023 269.862 66.459 269.226C65.907 268.578 65.631 267.606 65.631 266.31V261.18H67.251V265.86C67.251 266.82 67.413 267.54 67.737 268.02C68.073 268.5 68.595 268.74 69.303 268.74C69.723 268.74 70.113 268.656 70.473 268.488C70.845 268.32 71.133 268.074 71.337 267.75V261.18H72.957ZM79.4985 261C80.2905 261 80.9865 261.21 81.5865 261.63C82.1985 262.05 82.6665 262.614 82.9905 263.322C83.3145 264.018 83.4765 264.774 83.4765 265.59C83.4765 266.43 83.2965 267.204 82.9365 267.912C82.5885 268.608 82.1085 269.16 81.4965 269.568C80.8965 269.976 80.2305 270.18 79.4985 270.18C78.9585 270.18 78.4365 270.072 77.9325 269.856C77.4285 269.628 77.0385 269.316 76.7625 268.92L76.5825 270H75.1425V256.5H76.7625V262.206C77.0865 261.834 77.4885 261.54 77.9685 261.324C78.4605 261.108 78.9705 261 79.4985 261ZM79.3005 268.74C80.0565 268.74 80.6625 268.44 81.1185 267.84C81.5865 267.228 81.8205 266.478 81.8205 265.59C81.8205 264.678 81.5865 263.928 81.1185 263.34C80.6625 262.74 80.0565 262.44 79.3005 262.44C78.5565 262.44 77.9325 262.716 77.4285 263.268C76.9245 263.808 76.6725 264.582 76.6725 265.59C76.6725 266.634 76.9185 267.42 77.4105 267.948C77.9145 268.476 78.5445 268.74 79.3005 268.74ZM34.44 279.4H38.598C39.942 279.4 40.986 279.73 41.73 280.39C42.486 281.038 42.864 282.07 42.864 283.486C42.864 284.878 42.486 285.91 41.73 286.582C40.974 287.254 39.93 287.59 38.598 287.59H36.24V292H34.44V279.4ZM38.346 286.06C39.27 286.06 39.96 285.85 40.416 285.43C40.872 285.01 41.1 284.368 41.1 283.504C41.1 282.628 40.878 281.98 40.434 281.56C40.002 281.14 39.306 280.93 38.346 280.93H36.24V286.06H38.346ZM48.0223 292.18C47.1223 292.18 46.3423 291.982 45.6823 291.586C45.0223 291.178 44.5183 290.626 44.1703 289.93C43.8223 289.234 43.6483 288.454 43.6483 287.59C43.6483 286.726 43.8223 285.946 44.1703 285.25C44.5183 284.554 45.0223 284.008 45.6823 283.612C46.3423 283.204 47.1223 283 48.0223 283C48.9103 283 49.6843 283.204 50.3443 283.612C51.0163 284.008 51.5263 284.554 51.8743 285.25C52.2223 285.946 52.3963 286.726 52.3963 287.59C52.3963 288.454 52.2223 289.234 51.8743 289.93C51.5263 290.626 51.0163 291.178 50.3443 291.586C49.6843 291.982 48.9103 292.18 48.0223 292.18ZM48.0223 290.74C48.8863 290.74 49.5523 290.464 50.0203 289.912C50.5003 289.36 50.7403 288.586 50.7403 287.59C50.7403 286.594 50.5003 285.82 50.0203 285.268C49.5523 284.716 48.8863 284.44 48.0223 284.44C47.1583 284.44 46.4863 284.716 46.0063 285.268C45.5383 285.82 45.3043 286.594 45.3043 287.59C45.3043 288.586 45.5383 289.36 46.0063 289.912C46.4863 290.464 47.1583 290.74 48.0223 290.74ZM56.5688 292.18C55.8728 292.18 55.2608 292.102 54.7328 291.946C54.2168 291.778 53.8208 291.598 53.5448 291.406L53.7428 289.84C53.9828 290.056 54.3488 290.26 54.8408 290.452C55.3448 290.644 55.8968 290.74 56.4968 290.74C57.0608 290.74 57.4928 290.644 57.7928 290.452C58.1048 290.26 58.2607 289.99 58.2607 289.642C58.2607 289.234 58.0928 288.928 57.7568 288.724C57.4208 288.508 57.0008 288.328 56.4968 288.184C55.9448 288.04 55.4768 287.89 55.0928 287.734C54.7208 287.566 54.3968 287.314 54.1208 286.978C53.8568 286.642 53.7248 286.198 53.7248 285.646C53.7248 284.89 53.9948 284.26 54.5348 283.756C55.0748 283.252 55.9088 283 57.0368 283C57.5528 283 57.9908 283.054 58.3508 283.162C58.7108 283.258 59.0708 283.396 59.4308 283.576L59.2328 285.052C58.9448 284.812 58.6268 284.626 58.2788 284.494C57.9308 284.35 57.5288 284.278 57.0728 284.278C56.5448 284.278 56.1248 284.38 55.8128 284.584C55.5128 284.776 55.3628 285.07 55.3628 285.466C55.3628 285.73 55.4348 285.946 55.5788 286.114C55.7228 286.27 55.9268 286.402 56.1908 286.51C56.4548 286.618 56.8628 286.756 57.4148 286.924C58.0988 287.128 58.6868 287.416 59.1788 287.788C59.6828 288.16 59.9348 288.748 59.9348 289.552C59.9348 290.272 59.6768 290.89 59.1608 291.406C58.6568 291.922 57.7928 292.18 56.5688 292.18ZM64.5619 292.18C63.7819 292.18 63.1999 291.976 62.8159 291.568C62.4439 291.16 62.2579 290.662 62.2579 290.074V284.44H60.7459L60.8899 283.18H62.2579V281.002L63.8779 280.84V283.18H66.1999V284.44H63.8779V289.084C63.8779 289.696 63.9139 290.116 63.9859 290.344C64.0579 290.572 64.2079 290.722 64.4359 290.794C64.6759 290.854 65.1079 290.884 65.7319 290.884H66.1459L66.0199 292.18H64.5619ZM67.5123 285.628H73.0923V287.176H67.5123V285.628ZM75.2132 279.4H76.8332V281.2H75.2132V279.4ZM75.2132 283.18H76.8332V292H75.2132V283.18ZM82.0697 292.18C81.2897 292.18 80.7077 291.976 80.3237 291.568C79.9517 291.16 79.7657 290.662 79.7657 290.074V284.44H78.2537L78.3977 283.18H79.7657V281.002L81.3857 280.84V283.18H83.7077V284.44H81.3857V289.084C81.3857 289.696 81.4217 290.116 81.4937 290.344C81.5657 290.572 81.7157 290.722 81.9437 290.794C82.1837 290.854 82.6157 290.884 83.2397 290.884H83.6537L83.5277 292.18H82.0697ZM87.5941 292.18C86.8981 292.18 86.2861 292.102 85.7581 291.946C85.2421 291.778 84.8461 291.598 84.5701 291.406L84.7681 289.84C85.0081 290.056 85.3741 290.26 85.8661 290.452C86.3701 290.644 86.9221 290.74 87.5221 290.74C88.0861 290.74 88.5181 290.644 88.8181 290.452C89.1301 290.26 89.2861 289.99 89.2861 289.642C89.2861 289.234 89.1181 288.928 88.7821 288.724C88.4461 288.508 88.0261 288.328 87.5221 288.184C86.9701 288.04 86.5021 287.89 86.1181 287.734C85.7461 287.566 85.4221 287.314 85.1461 286.978C84.8821 286.642 84.7501 286.198 84.7501 285.646C84.7501 284.89 85.0201 284.26 85.5601 283.756C86.1001 283.252 86.9341 283 88.0621 283C88.5781 283 89.0161 283.054 89.3761 283.162C89.7361 283.258 90.0961 283.396 90.4561 283.576L90.2581 285.052C89.9701 284.812 89.6521 284.626 89.3041 284.494C88.9561 284.35 88.5541 284.278 88.0981 284.278C87.5701 284.278 87.1501 284.38 86.8381 284.584C86.5381 284.776 86.3881 285.07 86.3881 285.466C86.3881 285.73 86.4601 285.946 86.6041 286.114C86.7481 286.27 86.9521 286.402 87.2161 286.51C87.4801 286.618 87.8881 286.756 88.4401 286.924C89.1241 287.128 89.7121 287.416 90.2041 287.788C90.7081 288.16 90.9601 288.748 90.9601 289.552C90.9601 290.272 90.7021 290.89 90.1861 291.406C89.6821 291.922 88.8181 292.18 87.5941 292.18ZM92.8693 288.436L92.5093 279.4H94.7413L94.3813 288.436V288.904H92.8693V288.436ZM92.6533 290.092H94.5973V292H92.6533V290.092Z" fill="#121F41"/>
<path d="M85.942 5.948H82.27V4.4H91.324V5.948H87.652V17H85.942V5.948ZM95.1238 17.18C94.2238 17.18 93.4438 16.982 92.7838 16.586C92.1238 16.178 91.6198 15.626 91.2718 14.93C90.9238 14.234 90.7498 13.454 90.7498 12.59C90.7498 11.726 90.9238 10.946 91.2718 10.25C91.6198 9.554 92.1238 9.008 92.7838 8.612C93.4438 8.204 94.2238 8 95.1238 8C96.0118 8 96.7858 8.204 97.4458 8.612C98.1178 9.008 98.6278 9.554 98.9758 10.25C99.3238 10.946 99.4978 11.726 99.4978 12.59C99.4978 13.454 99.3238 14.234 98.9758 14.93C98.6278 15.626 98.1178 16.178 97.4458 16.586C96.7858 16.982 96.0118 17.18 95.1238 17.18ZM95.1238 15.74C95.9878 15.74 96.6538 15.464 97.1218 14.912C97.6018 14.36 97.8418 13.586 97.8418 12.59C97.8418 11.594 97.6018 10.82 97.1218 10.268C96.6538 9.716 95.9878 9.44 95.1238 9.44C94.2598 9.44 93.5878 9.716 93.1078 10.268C92.6398 10.82 92.4058 11.594 92.4058 12.59C92.4058 13.586 92.6398 14.36 93.1078 14.912C93.5878 15.464 94.2598 15.74 95.1238 15.74ZM105.02 17.18C104.12 17.18 103.34 16.982 102.68 16.586C102.02 16.178 101.516 15.626 101.168 14.93C100.82 14.234 100.646 13.454 100.646 12.59C100.646 11.726 100.82 10.946 101.168 10.25C101.516 9.554 102.02 9.008 102.68 8.612C103.34 8.204 104.12 8 105.02 8C105.908 8 106.682 8.204 107.342 8.612C108.014 9.008 108.524 9.554 108.872 10.25C109.22 10.946 109.394 11.726 109.394 12.59C109.394 13.454 109.22 14.234 108.872 14.93C108.524 15.626 108.014 16.178 107.342 16.586C106.682 16.982 105.908 17.18 105.02 17.18ZM105.02 15.74C105.884 15.74 106.55 15.464 107.018 14.912C107.498 14.36 107.738 13.586 107.738 12.59C107.738 11.594 107.498 10.82 107.018 10.268C106.55 9.716 105.884 9.44 105.02 9.44C104.156 9.44 103.484 9.716 103.004 10.268C102.536 10.82 102.302 11.594 102.302 12.59C102.302 13.586 102.536 14.36 103.004 14.912C103.484 15.464 104.156 15.74 105.02 15.74ZM113.333 17.18C112.541 17.18 111.959 16.976 111.587 16.568C111.227 16.16 111.047 15.656 111.047 15.056V3.5H112.667V14.12C112.667 14.648 112.697 15.032 112.757 15.272C112.829 15.512 112.961 15.674 113.153 15.758C113.345 15.842 113.657 15.884 114.089 15.884L113.855 17.18H113.333ZM117.821 17.18C117.125 17.18 116.513 17.102 115.985 16.946C115.469 16.778 115.073 16.598 114.797 16.406L114.995 14.84C115.235 15.056 115.601 15.26 116.093 15.452C116.597 15.644 117.149 15.74 117.749 15.74C118.313 15.74 118.745 15.644 119.045 15.452C119.357 15.26 119.513 14.99 119.513 14.642C119.513 14.234 119.345 13.928 119.009 13.724C118.673 13.508 118.253 13.328 117.749 13.184C117.197 13.04 116.729 12.89 116.345 12.734C115.973 12.566 115.649 12.314 115.373 11.978C115.109 11.642 114.977 11.198 114.977 10.646C114.977 9.89 115.247 9.26 115.787 8.756C116.327 8.252 117.161 8 118.289 8C118.805 8 119.243 8.054 119.603 8.162C119.963 8.258 120.323 8.396 120.683 8.576L120.485 10.052C120.197 9.812 119.879 9.626 119.531 9.494C119.183 9.35 118.781 9.278 118.325 9.278C117.797 9.278 117.377 9.38 117.065 9.584C116.765 9.776 116.615 10.07 116.615 10.466C116.615 10.73 116.687 10.946 116.831 11.114C116.975 11.27 117.179 11.402 117.443 11.51C117.707 11.618 118.115 11.756 118.667 11.924C119.351 12.128 119.939 12.416 120.431 12.788C120.935 13.16 121.187 13.748 121.187 14.552C121.187 15.272 120.929 15.89 120.413 16.406C119.909 16.922 119.045 17.18 117.821 17.18Z" fill="#121F41"/>
<path d="M11 56C2.69441 68.0144 3.58648 131.616 11 156L2 177.5L11 194.5C3.42921 220.391 5.91921 279.356 11 292" stroke="black" stroke-width="2"/>
</svg>
